<svg xmlns="http://www.w3.org/2000/svg" xmlns:xlink="http://www.w3.org/1999/xlink" id="Layer_1" width="364.08" height="99.524" x="0" y="0" enable-background="new 0 0 364.08 99.524" version="1.1" viewBox="0 0 364.08 99.524" xml:space="preserve"><g><g><g><image width="973" height="390" opacity=".1" overflow="visible" transform="matrix(0.24 0 0 0.24 127.1021 0)" xlink:href="423B8197D66693F1.png"/><g><polygon fill="#DDC782" points="357.594 90.549 274.083 3 210.635 3 182.937 36.624 164.445 36.624 130.102 90.549"/></g></g><polygon fill="#D6BA6B" points="231.917 22.801 206.431 22.801 187.94 47.95 171.654 47.206 145.282 88.371 168.425 88.371 182.449 63.548 199.237 63.572"/><g><polygon fill="#E2D5A8" points="274.083 3 210.654 3 204.371 10.625 267.201 10.625 344.072 90.549 357.594 90.549"/></g></g><g><image width="1517" height="309" opacity=".1" overflow="visible" transform="matrix(0.24 0 0 0.24 0 32.2876)" xlink:href="423B8197D66693F3.png"/><g><polygon fill="#DDC782" points="189.581 89.523 163.601 68.745 149.612 68.745 125.631 38.768 80.667 38.768 6.48 89.779 6.48 99.787 357.594 99.787 357.594 89.523"/></g></g><linearGradient id="SVGID_1_" x1="270.453" x2="270.453" y1="86.524" y2="89.524" gradientUnits="userSpaceOnUse"><stop offset="0" style="stop-color:#b5a339;stop-opacity:0"/><stop offset=".408" style="stop-color:#c2ac4d;stop-opacity:.1"/><stop offset="1" style="stop-color:#d6ba6b"/></linearGradient><polygon fill="url(#SVGID_1_)" points="352.266 86.524 183.286 86.524 183.286 89.524 357.62 89.524"/><polygon fill="#E2D5A8" points="122.253 44.537 145.63 74.507 161.814 74.507 180.395 89.492 189.541 89.492 163.601 68.745 149.612 68.745 125.631 38.768 80.667 38.768 72.039 44.537"/><polygon fill="#D6BA6B" points="42.167 89.492 18.97 89.492 69.507 52.929 92.704 52.929"/></g></svg>