<svg xmlns="http://www.w3.org/2000/svg" xmlns:xlink="http://www.w3.org/1999/xlink" id="Layer_1" width="213.12" height="69.84" x="0" y="0" enable-background="new 0 0 213.12 69.84" version="1.1" viewBox="0 0 213.12 69.84" xml:space="preserve"><g><image width="888" height="291" opacity=".1" overflow="visible" transform="matrix(0.24 0 0 0.24 0 0)" xlink:href="7F0562F1CC30193A.png"/><g><polygon fill="#8DAE7D" points="204.111 60.781 178.13 38.978 164.142 38.978 140.162 9 95.196 9 9 60.781"/></g></g><g><polygon fill="#8DAE7D" points="204.111 60.781 178.13 38.977 164.142 38.977 140.162 9 95.196 9 9 60.781 9 65.786 204.111 65.786"/></g><polygon fill="#B6C8A9" points="136.783 14.769 160.16 44.739 176.343 44.739 194.925 60.781 204.07 60.781 178.13 38.977 164.142 38.977 140.162 9 95.196 9 85.447 14.769"/><polygon fill="#49623D" points="46.688 59.724 23.492 59.724 81.034 23.161 104.23 23.161" opacity=".15"/></svg>