<svg x="0" y="0" viewBox="0 0 407.592 305.444" xml:space="preserve" style="enable-background:new 0 0 407.592 305.444"><style type="text/css">.com-plans-server-0{fill:#fff}.com-plans-server-1,.com-plans-server-2{fill:none;stroke:#cfd1d2;stroke-miterlimit:10}.com-plans-server-2{stroke:#c7d1d1}.com-plans-server-3{fill:#2ab34b}.com-plans-server-4{fill:#757575}.com-plans-server-5{fill:#989798}.com-plans-server-6{fill:#f5f6f7}.com-plans-server-7{fill:#38a569}.com-plans-server-8{fill:#e9e8e8}.com-plans-server-9{fill:#db4544}.com-plans-server-10{fill:#f9f9f9}.com-plans-server-11{fill:#d3d7d8}.com-plans-server-12{fill:#87bf99}.com-plans-server-13{fill:#a1a1a0}.com-plans-server-14{fill:#89bdbd}.com-plans-server-15{fill:#f2f0ee}.com-plans-server-16{fill:#e5676a}.com-plans-server-17{fill:#848283}.com-plans-server-18{fill:#f0eeee}.com-plans-server-19{fill:#e5e6e8}.com-plans-server-20{fill:#5f6060}.com-plans-server-21{fill:#5cba51}.com-plans-server-22{fill:#e0e1e0}</style><g id="enterprise-servers_1_"><path d="M342.723,160.623c0.959,0,1.798-0.839,1.798-1.798V2.997c0-0.959-0.839-1.798-1.798-1.798H48.567 c-0.959,0-1.798,0.839-1.798,1.798v155.828c0,0.959,0.839,1.798,1.798,1.798H342.723" class="com-plans-server-0"/><g id="ServerRackLeft"><g><g><g><path d="M117.611,284.207H2.178c-0.839,0-1.678,0.719-1.678,1.678v14.624h118.789v-14.624 C119.289,284.926,118.57,284.207,117.611,284.207z" class="com-plans-server-1"/></g><g><path d="M0.5,303.266c0,0.839,0.719,1.678,1.678,1.678h115.553c0.839,0,1.678-0.719,1.678-1.678v-2.877H0.5 V303.266z" class="com-plans-server-2"/></g></g><g><circle cx="105.744" cy="293.916" r="2.877" class="com-plans-server-3"/></g><g><g><circle cx="63.431" cy="291.758" r="1.079" class="com-plans-server-4"/></g><g><circle cx="56.239" cy="291.758" r="1.079" class="com-plans-server-4"/></g><g><circle cx="49.166" cy="291.758" r="1.079" class="com-plans-server-4"/></g><g><circle cx="41.974" cy="291.758" r="1.079" class="com-plans-server-4"/></g><g><circle cx="34.782" cy="291.758" r="1.079" class="com-plans-server-4"/></g><g><circle cx="27.71" cy="291.758" r="1.079" class="com-plans-server-4"/></g><g><circle cx="20.518" cy="291.758" r="1.079" class="com-plans-server-4"/></g><g><circle cx="59.835" cy="296.194" r="1.079" class="com-plans-server-4"/></g><g><circle cx="52.643" cy="296.194" r="1.079" class="com-plans-server-4"/></g><g><circle cx="45.57" cy="296.194" r="1.079" class="com-plans-server-4"/></g><g><circle cx="38.378" cy="296.194" r="1.079" class="com-plans-server-4"/></g><g><circle cx="31.306" cy="296.194" r="1.079" class="com-plans-server-4"/></g><g><circle cx="24.114" cy="296.194" r="1.079" class="com-plans-server-4"/></g><g><circle cx="13.446" cy="291.758" r="1.079" class="com-plans-server-4"/></g><g><circle cx="16.922" cy="296.194" r="1.079" class="com-plans-server-4"/></g></g></g><g><g><g><path d="M117.611,261.552H2.178c-0.839,0-1.678,0.719-1.678,1.678v14.624h118.789V263.23 C119.289,262.271,118.57,261.552,117.611,261.552z" class="com-plans-server-1"/></g><g><path d="M0.5,280.611c0,0.839,0.719,1.678,1.678,1.678h115.553c0.839,0,1.678-0.719,1.678-1.678v-2.877H0.5 V280.611z" class="com-plans-server-2"/></g></g><g><circle cx="105.744" cy="271.261" r="2.877" class="com-plans-server-3"/></g><g><g><circle cx="63.431" cy="268.983" r="1.079" class="com-plans-server-4"/></g><g><circle cx="56.239" cy="268.983" r="1.079" class="com-plans-server-4"/></g><g><circle cx="49.166" cy="268.983" r="1.079" class="com-plans-server-4"/></g><g><circle cx="41.974" cy="268.983" r="1.079" class="com-plans-server-4"/></g><g><circle cx="34.782" cy="268.983" r="1.079" class="com-plans-server-4"/></g><g><circle cx="27.71" cy="268.983" r="1.079" class="com-plans-server-4"/></g><g><circle cx="20.518" cy="268.983" r="1.079" class="com-plans-server-4"/></g><g><circle cx="59.835" cy="273.538" r="1.079" class="com-plans-server-4"/></g><g><circle cx="52.643" cy="273.538" r="1.079" class="com-plans-server-4"/></g><g><circle cx="45.57" cy="273.538" r="1.079" class="com-plans-server-4"/></g><g><circle cx="38.378" cy="273.538" r="1.079" class="com-plans-server-4"/></g><g><circle cx="31.306" cy="273.538" r="1.079" class="com-plans-server-4"/></g><g><circle cx="24.114" cy="273.538" r="1.079" class="com-plans-server-4"/></g><g><circle cx="13.446" cy="268.983" r="1.079" class="com-plans-server-4"/></g><g><circle cx="16.922" cy="273.538" r="1.079" class="com-plans-server-4"/></g></g></g><g><g><g><path d="M117.611,238.777H2.178c-0.839,0-1.678,0.719-1.678,1.678v14.624h118.789v-14.624 C119.289,239.496,118.57,238.777,117.611,238.777z" class="com-plans-server-1"/></g><g><path d="M0.5,257.836c0,0.839,0.719,1.678,1.678,1.678h115.553c0.839,0,1.678-0.719,1.678-1.678v-2.877H0.5 V257.836z" class="com-plans-server-2"/></g></g><g><circle cx="105.744" cy="248.606" r="2.877" class="com-plans-server-3"/></g><g><g><circle cx="63.431" cy="246.328" r="1.079" class="com-plans-server-4"/></g><g><circle cx="56.239" cy="246.328" r="1.079" class="com-plans-server-4"/></g><g><circle cx="49.166" cy="246.328" r="1.079" class="com-plans-server-4"/></g><g><circle cx="41.974" cy="246.328" r="1.079" class="com-plans-server-4"/></g><g><circle cx="34.782" cy="246.328" r="1.079" class="com-plans-server-4"/></g><g><circle cx="27.71" cy="246.328" r="1.079" class="com-plans-server-4"/></g><g><circle cx="20.518" cy="246.328" r="1.079" class="com-plans-server-4"/></g><g><circle cx="59.835" cy="250.764" r="1.079" class="com-plans-server-4"/></g><g><circle cx="52.643" cy="250.764" r="1.079" class="com-plans-server-4"/></g><g><circle cx="45.57" cy="250.764" r="1.079" class="com-plans-server-4"/></g><g><circle cx="38.378" cy="250.764" r="1.079" class="com-plans-server-4"/></g><g><circle cx="31.306" cy="250.764" r="1.079" class="com-plans-server-4"/></g><g><circle cx="24.114" cy="250.764" r="1.079" class="com-plans-server-4"/></g><g><circle cx="13.446" cy="246.328" r="1.079" class="com-plans-server-4"/></g><g><circle cx="16.922" cy="250.764" r="1.079" class="com-plans-server-4"/></g></g></g></g><g id="ServerRackMiddle"><g><g><g><path d="M261.452,284.207H145.9c-0.839,0-1.678,0.719-1.678,1.678v14.624h118.789v-14.624 C263.13,284.926,262.411,284.207,261.452,284.207z" class="com-plans-server-1"/></g><g><path d="M144.341,303.266c0,0.839,0.719,1.678,1.678,1.678h115.553c0.839,0,1.678-0.719,1.678-1.678v-2.877 H144.341V303.266z" class="com-plans-server-2"/></g></g><g><circle cx="249.585" cy="293.916" r="2.877" class="com-plans-server-3"/></g><g><g><circle cx="207.272" cy="291.758" r="1.079" class="com-plans-server-4"/></g><g><circle cx="200.08" cy="291.758" r="1.079" class="com-plans-server-4"/></g><g><circle cx="193.008" cy="291.758" r="1.079" class="com-plans-server-4"/></g><g><circle cx="185.816" cy="291.758" r="1.079" class="com-plans-server-4"/></g><g><circle cx="178.624" cy="291.758" r="1.079" class="com-plans-server-4"/></g><g><circle cx="171.551" cy="291.758" r="1.079" class="com-plans-server-4"/></g><g><circle cx="164.359" cy="291.758" r="1.079" class="com-plans-server-4"/></g><g><circle cx="203.676" cy="296.194" r="1.079" class="com-plans-server-4"/></g><g><circle cx="196.484" cy="296.194" r="1.079" class="com-plans-server-4"/></g><g><circle cx="189.412" cy="296.194" r="1.079" class="com-plans-server-4"/></g><g><circle cx="182.22" cy="296.194" r="1.079" class="com-plans-server-4"/></g><g><circle cx="175.147" cy="296.194" r="1.079" class="com-plans-server-4"/></g><g><circle cx="167.955" cy="296.194" r="1.079" class="com-plans-server-4"/></g><g><circle cx="157.287" cy="291.758" r="1.079" class="com-plans-server-4"/></g><g><circle cx="160.763" cy="296.194" r="1.079" class="com-plans-server-4"/></g></g></g><g><g><g><path d="M261.452,261.552H145.9c-0.839,0-1.678,0.719-1.678,1.678v14.624h118.789V263.23 C263.13,262.271,262.411,261.552,261.452,261.552z" class="com-plans-server-1"/></g><g><path d="M144.341,280.611c0,0.839,0.719,1.678,1.678,1.678h115.553c0.839,0,1.678-0.719,1.678-1.678v-2.877 H144.341V280.611z" class="com-plans-server-2"/></g></g><g><circle cx="249.585" cy="271.261" r="2.877" class="com-plans-server-3"/></g><g><g><circle cx="207.272" cy="268.983" r="1.079" class="com-plans-server-4"/></g><g><circle cx="200.08" cy="268.983" r="1.079" class="com-plans-server-4"/></g><g><circle cx="193.008" cy="268.983" r="1.079" class="com-plans-server-4"/></g><g><circle cx="185.816" cy="268.983" r="1.079" class="com-plans-server-4"/></g><g><circle cx="178.624" cy="268.983" r="1.079" class="com-plans-server-4"/></g><g><circle cx="171.551" cy="268.983" r="1.079" class="com-plans-server-4"/></g><g><circle cx="164.359" cy="268.983" r="1.079" class="com-plans-server-4"/></g><g><circle cx="203.676" cy="273.538" r="1.079" class="com-plans-server-4"/></g><g><circle cx="196.484" cy="273.538" r="1.079" class="com-plans-server-4"/></g><g><circle cx="189.412" cy="273.538" r="1.079" class="com-plans-server-4"/></g><g><circle cx="182.22" cy="273.538" r="1.079" class="com-plans-server-4"/></g><g><circle cx="175.147" cy="273.538" r="1.079" class="com-plans-server-4"/></g><g><circle cx="167.955" cy="273.538" r="1.079" class="com-plans-server-4"/></g><g><circle cx="157.287" cy="268.983" r="1.079" class="com-plans-server-4"/></g><g><circle cx="160.763" cy="273.538" r="1.079" class="com-plans-server-4"/></g></g></g><g><g><g><path d="M261.452,238.777H145.9c-0.839,0-1.678,0.719-1.678,1.678v14.624h118.789v-14.624 C263.13,239.496,262.411,238.777,261.452,238.777z" class="com-plans-server-1"/></g><g><path d="M144.341,257.836c0,0.839,0.719,1.678,1.678,1.678h115.553c0.839,0,1.678-0.719,1.678-1.678v-2.877 H144.341V257.836z" class="com-plans-server-2"/></g></g><g><circle cx="249.585" cy="248.606" r="2.877" class="com-plans-server-3"/></g><g><g><circle cx="207.272" cy="246.328" r="1.079" class="com-plans-server-4"/></g><g><circle cx="200.08" cy="246.328" r="1.079" class="com-plans-server-4"/></g><g><circle cx="193.008" cy="246.328" r="1.079" class="com-plans-server-4"/></g><g><circle cx="185.816" cy="246.328" r="1.079" class="com-plans-server-4"/></g><g><circle cx="178.624" cy="246.328" r="1.079" class="com-plans-server-4"/></g><g><circle cx="171.551" cy="246.328" r="1.079" class="com-plans-server-4"/></g><g><circle cx="164.359" cy="246.328" r="1.079" class="com-plans-server-4"/></g><g><circle cx="203.676" cy="250.764" r="1.079" class="com-plans-server-4"/></g><g><circle cx="196.484" cy="250.764" r="1.079" class="com-plans-server-4"/></g><g><circle cx="189.412" cy="250.764" r="1.079" class="com-plans-server-4"/></g><g><circle cx="182.22" cy="250.764" r="1.079" class="com-plans-server-4"/></g><g><circle cx="175.147" cy="250.764" r="1.079" class="com-plans-server-4"/></g><g><circle cx="167.955" cy="250.764" r="1.079" class="com-plans-server-4"/></g><g><circle cx="157.287" cy="246.328" r="1.079" class="com-plans-server-4"/></g><g><circle cx="160.763" cy="250.764" r="1.079" class="com-plans-server-4"/></g></g></g></g><g id="ServerRackRight"><g><g><g><path d="M405.294,284.207H289.741c-0.839,0-1.678,0.719-1.678,1.678v14.624l118.789-1.199v-14.624 C406.972,283.727,406.253,284.207,405.294,284.207z" class="com-plans-server-1"/></g><g><path d="M288.183,303.266c0,0.839,0.719,1.678,1.678,1.678h115.553c0.839,0,1.678-3.117,1.678-4.076v-1.678 l-118.909,1.199V303.266z" class="com-plans-server-2"/></g></g><g><circle cx="393.427" cy="293.916" r="2.877" class="com-plans-server-3"/></g><g><g><circle cx="351.113" cy="291.758" r="1.079" class="com-plans-server-4"/></g><g><circle cx="343.921" cy="291.758" r="1.079" class="com-plans-server-4"/></g><g><circle cx="336.849" cy="291.758" r="1.079" class="com-plans-server-4"/></g><g><circle cx="329.657" cy="291.758" r="1.079" class="com-plans-server-4"/></g><g><circle cx="322.465" cy="291.758" r="1.079" class="com-plans-server-4"/></g><g><circle cx="315.393" cy="291.758" r="1.079" class="com-plans-server-4"/></g><g><circle cx="308.201" cy="291.758" r="1.079" class="com-plans-server-4"/></g><g><circle cx="347.517" cy="296.194" r="1.079" class="com-plans-server-4"/></g><g><circle cx="340.325" cy="296.194" r="1.079" class="com-plans-server-4"/></g><g><circle cx="333.253" cy="296.194" r="1.079" class="com-plans-server-4"/></g><g><circle cx="326.061" cy="296.194" r="1.079" class="com-plans-server-4"/></g><g><circle cx="318.989" cy="296.194" r="1.079" class="com-plans-server-4"/></g><g><circle cx="311.797" cy="296.194" r="1.079" class="com-plans-server-4"/></g><g><circle cx="301.129" cy="291.758" r="1.079" class="com-plans-server-4"/></g><g><circle cx="304.605" cy="296.194" r="1.079" class="com-plans-server-4"/></g></g></g><g><g><g><path d="M405.294,261.552H289.741c-0.839,0-1.678,0.719-1.678,1.678v14.624h118.789V263.23 C406.972,262.271,406.253,261.552,405.294,261.552z" class="com-plans-server-1"/></g><g><path d="M288.183,280.611c0,0.839,0.719,1.678,1.678,1.678h115.553c0.839,0,1.678-0.719,1.678-1.678v-2.877 H288.183V280.611z" class="com-plans-server-2"/></g></g><g><circle cx="393.427" cy="271.261" r="2.877" class="com-plans-server-3"/></g><g><g><circle cx="351.113" cy="268.983" r="1.079" class="com-plans-server-4"/></g><g><circle cx="343.921" cy="268.983" r="1.079" class="com-plans-server-4"/></g><g><circle cx="336.849" cy="268.983" r="1.079" class="com-plans-server-4"/></g><g><circle cx="329.657" cy="268.983" r="1.079" class="com-plans-server-4"/></g><g><circle cx="322.465" cy="268.983" r="1.079" class="com-plans-server-4"/></g><g><circle cx="315.393" cy="268.983" r="1.079" class="com-plans-server-4"/></g><g><circle cx="308.201" cy="268.983" r="1.079" class="com-plans-server-4"/></g><g><circle cx="347.517" cy="273.538" r="1.079" class="com-plans-server-4"/></g><g><circle cx="340.325" cy="273.538" r="1.079" class="com-plans-server-4"/></g><g><circle cx="333.253" cy="273.538" r="1.079" class="com-plans-server-4"/></g><g><circle cx="326.061" cy="273.538" r="1.079" class="com-plans-server-4"/></g><g><circle cx="318.989" cy="273.538" r="1.079" class="com-plans-server-4"/></g><g><circle cx="311.797" cy="273.538" r="1.079" class="com-plans-server-4"/></g><g><circle cx="301.129" cy="268.983" r="1.079" class="com-plans-server-4"/></g><g><circle cx="304.605" cy="273.538" r="1.079" class="com-plans-server-4"/></g></g></g><g><g><g><path d="M405.294,238.777H289.741c-0.839,0-1.678,0.719-1.678,1.678v14.624h118.789v-14.624 C406.972,239.496,406.253,238.777,405.294,238.777z" class="com-plans-server-1"/></g><g><path d="M288.183,257.836c0,0.839,0.719,1.678,1.678,1.678h115.553c0.839,0,1.678-0.719,1.678-1.678v-2.877 H288.183V257.836z" class="com-plans-server-2"/></g></g><g><circle cx="393.427" cy="248.606" r="2.877" class="com-plans-server-3"/></g><g><g><circle cx="351.113" cy="246.328" r="1.079" class="com-plans-server-4"/></g><g><circle cx="343.921" cy="246.328" r="1.079" class="com-plans-server-4"/></g><g><circle cx="336.849" cy="246.328" r="1.079" class="com-plans-server-4"/></g><g><circle cx="329.657" cy="246.328" r="1.079" class="com-plans-server-4"/></g><g><circle cx="322.465" cy="246.328" r="1.079" class="com-plans-server-4"/></g><g><circle cx="315.393" cy="246.328" r="1.079" class="com-plans-server-4"/></g><g><circle cx="308.201" cy="246.328" r="1.079" class="com-plans-server-4"/></g><g><circle cx="347.517" cy="250.764" r="1.079" class="com-plans-server-4"/></g><g><circle cx="340.325" cy="250.764" r="1.079" class="com-plans-server-4"/></g><g><circle cx="333.253" cy="250.764" r="1.079" class="com-plans-server-4"/></g><g><circle cx="326.061" cy="250.764" r="1.079" class="com-plans-server-4"/></g><g><circle cx="318.989" cy="250.764" r="1.079" class="com-plans-server-4"/></g><g><circle cx="311.797" cy="250.764" r="1.079" class="com-plans-server-4"/></g><g><circle cx="301.129" cy="246.328" r="1.079" class="com-plans-server-4"/></g><g><circle cx="304.605" cy="250.764" r="1.079" class="com-plans-server-4"/></g></g></g></g><g id="DottedLines"><g><g><rect width="1.199" height="1.199" x="198.282" y="181.24" class="com-plans-server-5"/></g><g><path d="M199.481,214.923h-1.199v-2.277h1.199V214.923z M199.481,210.248h-1.199v-2.277h1.199V210.248z M199.481,205.693h-1.199v-2.277h1.199V205.693z M199.481,201.018h-1.199v-2.277h1.199V201.018z M199.481,196.344h-1.199v-2.277 h1.199V196.344z M199.481,191.789h-1.199v-2.397h1.199V191.789z M199.481,187.114h-1.199v-2.277h1.199V187.114z" class="com-plans-server-5"/></g><g><rect width="1.199" height="1.199" x="198.282" y="217.201" class="com-plans-server-5"/></g></g><g><g><path d="M213.026,182.439c0-0.719,0-1.199,0-1.199l1.199,0.12c0,0,0,0.479,0,1.199L213.026,182.439z" class="com-plans-server-5"/></g><g><path d="M345.959,212.765c-0.12-0.839-0.12-1.558-0.24-2.277l1.199-0.24c0.12,0.719,0.24,1.558,0.36,2.397 L345.959,212.765z M345.24,208.21c-0.24-0.719-0.479-1.438-0.719-2.158l1.079-0.479c0.24,0.719,0.599,1.558,0.719,2.277 L345.24,208.21z M343.442,203.895c-0.36-0.719-0.839-1.319-1.319-1.798l0.959-0.719c0.479,0.599,0.959,1.319,1.438,2.038 L343.442,203.895z M340.565,200.539c-0.599-0.479-1.199-0.839-1.918-1.199l0.479-1.079c0.719,0.36,1.438,0.839,2.158,1.319 L340.565,200.539z M336.609,198.621c-0.719-0.24-1.438-0.36-2.277-0.36l0.12-1.199c0.839,0,1.678,0.12,2.517,0.36 L336.609,198.621z M331.935,198.261h-2.397v-1.199h2.397V198.261z M327.26,198.261h-2.397v-1.199h2.397V198.261z M322.465,198.261h-2.397v-1.199h2.397V198.261z M317.67,198.261h-2.397v-1.199h2.397V198.261z M312.996,198.261h-2.397v-1.199 h2.397V198.261z M308.201,198.261h-2.397v-1.199h2.397V198.261z M303.406,198.261h-2.397v-1.199h2.397V198.261z M298.731,198.261h-2.397v-1.199h2.397V198.261z M293.937,198.261h-2.397v-1.199h2.397V198.261z M289.262,198.261h-2.397v-1.199 h2.397V198.261z M284.467,198.261h-2.397v-1.199h2.397V198.261z M279.792,198.261h-2.397v-1.199h2.397V198.261z M274.997,198.261H272.6v-1.199h2.397V198.261z M270.203,198.261h-2.397v-1.199h2.397V198.261z M265.528,198.261h-2.397v-1.199 h2.397V198.261z M260.733,198.261h-2.397v-1.199h2.397V198.261z M256.058,198.261h-2.397v-1.199h2.397V198.261z M251.264,198.261h-2.397v-1.199h2.397V198.261z M246.469,198.261h-2.397v-1.199h2.397V198.261z M241.794,198.261h-2.397v-1.199 h2.397V198.261z M236.999,198.261h-2.397v-1.199h2.397V198.261z M232.205,198.261h-2.397v-1.199h2.397V198.261z M227.53,198.261 h-1.798c-0.24,0-0.36,0-0.599,0v-1.199c0.12,0,0.36,0,0.479,0h1.798v1.199H227.53z M222.615,197.902 c-0.839-0.24-1.678-0.479-2.397-0.839l0.479-1.079c0.599,0.36,1.319,0.599,2.158,0.719L222.615,197.902z M218.18,195.744 c-0.599-0.479-1.199-1.079-1.678-1.798l0.959-0.719c0.479,0.599,0.959,1.199,1.558,1.678L218.18,195.744z M215.183,191.789 c-0.36-0.719-0.719-1.438-0.959-2.277l1.079-0.36c0.24,0.719,0.599,1.438,0.839,2.158L215.183,191.789z M213.625,187.234 c-0.12-0.719-0.24-1.558-0.36-2.397l1.199-0.12c0.12,0.839,0.24,1.558,0.36,2.277L213.625,187.234z" class="com-plans-server-5"/></g><g><path d="M347.278,216.002h-1.199c0-0.36,0-0.839,0-1.199h1.199C347.278,215.163,347.278,215.642,347.278,216.002z" class="com-plans-server-5"/></g></g><g><g><path d="M184.257,182.439h-1.199c0-0.719,0-1.079,0-1.199l1.199-0.12C184.257,181.12,184.257,181.6,184.257,182.439 z" class="com-plans-server-5"/></g><g><path d="M58.516,212.646l-1.199-0.12c0.12-0.839,0.12-1.678,0.36-2.397l1.199,0.24 C58.756,211.087,58.636,211.807,58.516,212.646z M59.355,208.091l-1.199-0.36c0.24-0.839,0.479-1.558,0.839-2.397l1.079,0.479 C59.835,206.532,59.595,207.252,59.355,208.091z M61.153,203.775l-1.079-0.599c0.479-0.719,0.959-1.438,1.438-2.038l0.839,0.839 C61.992,202.457,61.513,203.056,61.153,203.775z M64.15,200.419l-0.719-0.959c0.719-0.479,1.438-0.959,2.158-1.319l0.479,1.079 C65.468,199.58,64.749,199.94,64.15,200.419z M68.345,198.501l-0.24-1.199c1.079-0.24,1.918-0.24,2.517-0.36v1.199 C70.023,198.261,69.184,198.261,68.345,198.501z M171.671,198.261h-2.158v-1.199h2.397v1.199H171.671z M166.996,198.261h-2.397 v-1.199h2.397V198.261z M162.202,198.261h-2.397v-1.199h2.397V198.261z M157.407,198.261h-2.397v-1.199h2.397V198.261z M152.612,198.261h-2.397v-1.199h2.397V198.261z M147.698,198.261H145.3v-1.199h2.397V198.261z M142.903,198.261h-2.397v-1.199 h2.397V198.261z M138.108,198.261h-2.397v-1.199h2.397V198.261z M133.314,198.261h-2.397v-1.199h2.397V198.261z M128.519,198.261h-2.397v-1.199h2.397V198.261z M123.604,198.261h-2.397v-1.199h2.397V198.261z M118.81,198.261h-2.397v-1.199 h2.397V198.261z M114.015,198.261h-2.397v-1.199h2.397V198.261z M109.22,198.261h-2.397v-1.199h2.397V198.261z M104.306,198.261 h-2.397v-1.199h2.397V198.261z M99.511,198.261h-2.397v-1.199h2.397V198.261z M94.716,198.261h-2.397v-1.199h2.397V198.261z M89.921,198.261h-2.397v-1.199h2.397V198.261z M85.007,198.261h-2.397v-1.199h2.397V198.261z M80.212,198.261h-2.397v-1.199 h2.397V198.261z M75.417,198.261H73.02v-1.199h2.397V198.261z M174.428,198.022l-0.24-1.199c0.719-0.12,1.438-0.36,2.158-0.719 l0.479,1.079C176.106,197.542,175.267,197.782,174.428,198.022z M178.983,195.864l-0.719-0.959 c0.599-0.479,1.079-0.959,1.558-1.558l0.959,0.719C180.182,194.785,179.583,195.385,178.983,195.864z M182.1,191.908 l-1.079-0.599c0.36-0.599,0.599-1.319,0.839-2.158l1.079,0.36C182.819,190.47,182.459,191.189,182.1,191.908z M183.778,187.234 l-1.199-0.24c0.12-0.719,0.24-1.558,0.36-2.277l1.199,0.12C184.018,185.675,183.898,186.514,183.778,187.234z" class="com-plans-server-5"/></g><g><path d="M58.396,216.002h-1.199c0-0.36,0-0.839,0-1.199h1.199C58.396,215.283,58.396,215.642,58.396,216.002z" class="com-plans-server-5"/></g></g></g><g id="TravisCI"><g><g><g><path d="M337.568,36.68h-226.67v25.772h226.67c1.079,0,1.798-0.839,1.798-1.798V38.597 C339.486,37.519,338.527,36.68,337.568,36.68z" class="com-plans-server-6"/></g></g></g><g><g><path d="M110.299,62.331h1.558V36.56l-1.558,0.12V62.331z" class="com-plans-server-7"/></g></g><g><g><rect width="1.199" height="16.782" x="46.769" y="36.919" class="com-plans-server-7"/></g></g><g><g><rect width="297.632" height="9.829" x="46.769" y="1.199" class="com-plans-server-8"/></g></g><g><g><rect width="1.199" height="16.782" x="46.769" y="54.78" class="com-plans-server-9"/></g></g><g><g><rect width="1.199" height="16.782" x="46.769" y="108.48" class="com-plans-server-9"/></g></g><g><g><rect width="1.199" height="16.782" x="46.769" y="72.64" class="com-plans-server-7"/></g></g><g><g><rect width="1.199" height="16.782" x="46.769" y="90.74" class="com-plans-server-7"/></g></g><g><g><rect width="1.199" height="16.782" x="46.769" y="126.341" class="com-plans-server-7"/></g></g><g><g><path d="M339.606,78.394c0,1.079-0.839,1.798-1.798,1.798H111.618c-1.079,0-1.798-0.839-1.798-1.798v-2.637 c0-1.079,0.839-1.798,1.798-1.798h226.191c1.079,0,1.798,0.839,1.798,1.798V78.394L339.606,78.394z" class="com-plans-server-10"/></g></g><g><g><path d="M339.606,96.733c0,1.079-0.839,1.798-1.798,1.798H111.618c-1.079,0-1.798-0.839-1.798-1.798v-2.637 c0-1.079,0.839-1.798,1.798-1.798h226.191c1.079,0,1.798,0.839,1.798,1.798V96.733L339.606,96.733z" class="com-plans-server-10"/></g></g><g><g><path d="M339.606,104.285c0,1.079-0.839,1.798-1.798,1.798H111.618c-1.079,0-1.798-0.839-1.798-1.798v-2.637 c0-1.079,0.839-1.798,1.798-1.798h226.191c1.079,0,1.798,0.839,1.798,1.798V104.285L339.606,104.285z" class="com-plans-server-10"/></g></g><g><g><path d="M339.606,111.477c0,1.079-0.839,1.798-1.798,1.798H111.618c-1.079,0-1.798-0.839-1.798-1.798v-2.637 c0-1.079,0.839-1.798,1.798-1.798h226.191c1.079,0,1.798,0.839,1.798,1.798V111.477L339.606,111.477z" class="com-plans-server-10"/></g></g><g><g><rect width="1.199" height="16.782" x="46.769" y="144.321" class="com-plans-server-7"/></g></g><g><g><rect width="16.782" height="1.798" x="53.122" y="45.31" class="com-plans-server-11"/></g></g><g><g><rect width="25.532" height="1.798" x="50.964" y="19.179" class="com-plans-server-11"/></g></g><g><g><rect width="21.816" height="1.798" x="53.122" y="39.676" class="com-plans-server-12"/></g></g><g><g><rect width="4.915" height="1.798" x="71.462" y="5.394" class="com-plans-server-13"/></g></g><g><g><rect width="17.86" height="3.356" x="49.646" y="4.555" class="com-plans-server-13"/></g></g><g><g><rect width="4.915" height="1.798" x="92.319" y="5.394" class="com-plans-server-13"/></g></g><g><g><rect width="7.312" height="1.798" x="80.692" y="5.394" class="com-plans-server-13"/></g></g><g><g><rect width="4.915" height="1.798" x="96.155" y="39.676" class="com-plans-server-12"/></g></g><g><g><rect width="24.093" height="1.798" x="53.122" y="49.146" class="com-plans-server-11"/></g></g><g><g><rect width="48.427" height="1.798" x="115.333" y="39.197" class="com-plans-server-11"/></g></g><g><g><rect width="24.453" height="1.798" x="115.333" y="42.793" class="com-plans-server-11"/></g></g><g><g><rect width="19.658" height="1.798" x="119.349" y="47.588" class="com-plans-server-11"/></g></g><g><g><rect width="14.264" height="1.798" x="266.487" y="39.916" class="com-plans-server-12"/></g></g><g><g><rect width="23.015" height="1.798" x="266.487" y="44.691" class="com-plans-server-11"/></g></g><g><g><rect width="10.189" height="1.798" x="266.487" y="49.246" class="com-plans-server-11"/></g></g><g><g><rect width="31.645" height="1.798" x="119.349" y="51.663" class="com-plans-server-11"/></g></g><g><g><rect width="7.911" height="1.798" x="109.819" y="29.967" class="com-plans-server-14"/></g></g><g><g><rect width="9.709" height="1.798" x="122.765" y="29.967" class="com-plans-server-11"/></g></g><g><g><rect width="13.305" height="1.798" x="137.389" y="29.967" class="com-plans-server-11"/></g></g><g><g><rect width="13.665" height="1.798" x="155.729" y="29.967" class="com-plans-server-11"/></g></g><g><g><rect width="7.911" height=".36" x="109.819" y="33.563" class="com-plans-server-14"/></g></g><g><g><rect width="227.03" height=".36" x="117.491" y="33.563" class="com-plans-server-15"/></g></g><g><g><rect width="17.621" height="1.798" x="49.646" y="29.847" class="com-plans-server-14"/></g></g><g><g><rect width="7.911" height=".36" x="49.646" y="33.323" class="com-plans-server-14"/></g></g><g><g><rect width="43.512" height=".36" x="57.317" y="33.323" class="com-plans-server-15"/></g></g><g><g><rect width="36.44" height="1.798" x="120.368" y="57.417" class="com-plans-server-11"/></g></g><g><g><circle cx="50.605" cy="40.515" r=".959" class="com-plans-server-12"/></g></g><g><g><circle cx="50.605" cy="46.149" r=".959" class="com-plans-server-11"/></g></g><g><g><circle cx="112.217" cy="95.655" r=".959" class="com-plans-server-12"/></g></g><g><g><circle cx="112.217" cy="102.966" r=".959" class="com-plans-server-16"/></g></g><g><g><circle cx="112.217" cy="110.039" r=".959" class="com-plans-server-16"/></g></g><g><g><circle cx="112.217" cy="76.955" r=".959" class="com-plans-server-12"/></g></g><g><g><circle cx="94.237" cy="40.395" r=".959" class="com-plans-server-11"/></g></g><g><g><circle cx="263.61" cy="40.695" r=".959" class="com-plans-server-12"/></g></g><g><g><circle cx="116.472" cy="48.427" r=".959" class="com-plans-server-11"/></g></g><g><g><circle cx="116.472" cy="52.742" r=".959" class="com-plans-server-11"/></g></g><g><g><circle cx="263.71" cy="45.79" r=".959" class="com-plans-server-11"/></g></g><g><g><circle cx="263.61" cy="50.205" r=".959" class="com-plans-server-11"/></g></g><g><g><circle cx="98.072" cy="19.778" r=".959" class="com-plans-server-11"/></g></g><g><g><circle cx="50.605" cy="50.105" r=".959" class="com-plans-server-11"/></g></g><g><g><rect width="16.782" height="1.798" x="53.122" y="81.031" class="com-plans-server-11"/></g></g><g><g><rect width="21.816" height="1.798" x="53.122" y="75.397" class="com-plans-server-12"/></g></g><g><g><rect width="4.915" height="1.798" x="96.155" y="75.397" class="com-plans-server-12"/></g></g><g><g><rect width="24.093" height="1.798" x="53.122" y="84.866" class="com-plans-server-11"/></g></g><g><g><circle cx="50.605" cy="76.236" r=".959" class="com-plans-server-12"/></g></g><g><g><circle cx="50.605" cy="81.75" r=".959" class="com-plans-server-11"/></g></g><g><g><circle cx="94.237" cy="76.116" r=".959" class="com-plans-server-11"/></g></g><g><g><circle cx="118.929" cy="76.955" r=".959" class="com-plans-server-11"/></g></g><g><g><g><rect width="19.898" height="1.798" x="164.479" y="76.116" class="com-plans-server-11"/></g></g><g><g><circle cx="162.322" cy="76.955" r=".959" class="com-plans-server-11"/></g></g></g><g><g><g><rect width="26.85" height="1.798" x="225.132" y="76.116" class="com-plans-server-11"/></g></g><g><g><circle cx="222.855" cy="76.955" r=".959" class="com-plans-server-11"/></g></g></g><g><g><g><rect width="11.387" height="1.798" x="290.341" y="76.116" class="com-plans-server-11"/></g></g><g><g><circle cx="287.584" cy="76.955" r=".959" class="com-plans-server-11"/></g></g></g><g><g><g><rect width="19.898" height="1.798" x="164.479" y="94.576" class="com-plans-server-11"/></g></g><g><g><circle cx="162.322" cy="95.415" r=".959" class="com-plans-server-11"/></g></g></g><g><g><g><rect width="26.85" height="1.798" x="225.132" y="94.576" class="com-plans-server-11"/></g></g><g><g><circle cx="222.855" cy="95.415" r=".959" class="com-plans-server-11"/></g></g></g><g><g><g><rect width="11.387" height="1.798" x="290.341" y="94.576" class="com-plans-server-11"/></g></g><g><g><circle cx="287.584" cy="95.415" r=".959" class="com-plans-server-11"/></g></g></g><g><g><g><rect width="19.898" height="1.798" x="164.479" y="101.768" class="com-plans-server-11"/></g></g><g><g><circle cx="162.322" cy="102.727" r=".959" class="com-plans-server-11"/></g></g></g><g><g><g><rect width="26.85" height="1.798" x="225.132" y="101.768" class="com-plans-server-11"/></g></g><g><g><circle cx="222.855" cy="102.727" r=".959" class="com-plans-server-11"/></g></g></g><g><g><g><rect width="11.387" height="1.798" x="290.341" y="101.768" class="com-plans-server-11"/></g></g><g><g><circle cx="287.584" cy="102.727" r=".959" class="com-plans-server-11"/></g></g></g><g><g><g><rect width="19.898" height="1.798" x="164.479" y="109.319" class="com-plans-server-11"/></g></g><g><g><circle cx="162.322" cy="110.159" r=".959" class="com-plans-server-11"/></g></g></g><g><g><g><rect width="26.85" height="1.798" x="225.132" y="109.319" class="com-plans-server-11"/></g></g><g><g><circle cx="222.855" cy="110.159" r=".959" class="com-plans-server-11"/></g></g></g><g><g><g><rect width="11.387" height="1.798" x="290.341" y="109.319" class="com-plans-server-11"/></g></g><g><g><circle cx="287.584" cy="110.159" r=".959" class="com-plans-server-11"/></g></g></g><g><g><circle cx="117.012" cy="58.496" r="1.678" class="com-plans-server-11"/></g></g><g><g><circle cx="164.24" cy="20.497" r="1.678" class="com-plans-server-17"/></g></g><g><g><circle cx="118.929" cy="95.415" r=".959" class="com-plans-server-11"/></g></g><g><g><circle cx="118.929" cy="102.727" r=".959" class="com-plans-server-11"/></g></g><g><g><circle cx="118.929" cy="109.919" r=".959" class="com-plans-server-11"/></g></g><g><g><circle cx="50.605" cy="85.706" r=".959" class="com-plans-server-11"/></g></g><g><g><rect width="16.782" height="1.798" x="53.122" y="99.011" class="com-plans-server-11"/></g></g><g><g><rect width="21.816" height="1.798" x="53.122" y="93.377" class="com-plans-server-12"/></g></g><g><g><rect width="4.915" height="1.798" x="96.155" y="93.377" class="com-plans-server-12"/></g></g><g><g><rect width="24.093" height="1.798" x="53.122" y="102.847" class="com-plans-server-11"/></g></g><g><g><circle cx="50.605" cy="94.216" r=".959" class="com-plans-server-12"/></g></g><g><g><circle cx="50.605" cy="99.73" r=".959" class="com-plans-server-11"/></g></g><g><g><circle cx="94.237" cy="94.096" r=".959" class="com-plans-server-11"/></g></g><g><g><circle cx="50.605" cy="103.686" r=".959" class="com-plans-server-11"/></g></g><g><g><rect width="16.782" height="1.798" x="53.122" y="116.871" class="com-plans-server-11"/></g></g><g><g><rect width="21.816" height="1.798" x="53.122" y="111.237" class="com-plans-server-16"/></g></g><g><g><rect width="4.915" height="1.798" x="96.155" y="111.237" class="com-plans-server-16"/></g></g><g><g><rect width="17.74" height="1.798" x="121.447" y="109.319" class="com-plans-server-16"/></g></g><g><g><rect width="17.74" height="1.798" x="121.447" y="102.008" class="com-plans-server-16"/></g></g><g><g><rect width="17.74" height="1.798" x="121.447" y="94.815" class="com-plans-server-12"/></g></g><g><g><rect width="17.74" height="1.798" x="121.447" y="76.116" class="com-plans-server-12"/></g></g><g><g><rect width="24.093" height="1.798" x="53.122" y="120.707" class="com-plans-server-11"/></g></g><g><g><circle cx="50.605" cy="112.076" r=".959" class="com-plans-server-16"/></g></g><g><g><circle cx="50.605" cy="117.59" r=".959" class="com-plans-server-11"/></g></g><g><g><circle cx="94.237" cy="111.957" r=".959" class="com-plans-server-11"/></g></g><g><g><circle cx="50.605" cy="121.546" r=".959" class="com-plans-server-11"/></g></g><g><g><rect width="16.782" height="1.798" x="53.122" y="63.29" class="com-plans-server-11"/></g></g><g><g><rect width="21.816" height="1.798" x="53.122" y="57.656" class="com-plans-server-16"/></g></g><g><g><rect width="4.915" height="1.798" x="96.155" y="57.656" class="com-plans-server-16"/></g></g><g><g><rect width="24.093" height="1.798" x="53.122" y="67.126" class="com-plans-server-11"/></g></g><g><g><circle cx="50.605" cy="58.376" r=".959" class="com-plans-server-16"/></g></g><g><g><circle cx="50.605" cy="64.129" r=".959" class="com-plans-server-11"/></g></g><g><g><circle cx="94.237" cy="58.376" r=".959" class="com-plans-server-11"/></g></g><g><g><circle cx="50.605" cy="68.085" r=".959" class="com-plans-server-11"/></g></g><g><g><rect width="16.782" height="1.798" x="53.122" y="134.851" class="com-plans-server-11"/></g></g><g><g><rect width="21.816" height="1.798" x="53.122" y="129.218" class="com-plans-server-12"/></g></g><g><g><rect width="4.915" height="1.798" x="96.155" y="129.218" class="com-plans-server-12"/></g></g><g><g><rect width="24.093" height="1.798" x="53.122" y="138.687" class="com-plans-server-11"/></g></g><g><g><circle cx="50.605" cy="130.057" r=".959" class="com-plans-server-12"/></g></g><g><g><circle cx="50.605" cy="135.571" r=".959" class="com-plans-server-11"/></g></g><g><g><circle cx="94.237" cy="129.937" r=".959" class="com-plans-server-11"/></g></g><g><g><circle cx="50.605" cy="139.526" r=".959" class="com-plans-server-11"/></g></g><g><g><rect width="16.782" height="1.798" x="53.122" y="152.832" class="com-plans-server-11"/></g></g><g><g><rect width="21.816" height="1.798" x="53.122" y="147.198" class="com-plans-server-12"/></g></g><g><g><rect width="4.915" height="1.798" x="96.155" y="147.198" class="com-plans-server-12"/></g></g><g><g><rect width="24.093" height="1.798" x="53.122" y="156.547" class="com-plans-server-11"/></g></g><g><g><circle cx="50.605" cy="147.917" r=".959" class="com-plans-server-12"/></g></g><g><g><circle cx="50.605" cy="153.551" r=".959" class="com-plans-server-11"/></g></g><g><g><circle cx="94.237" cy="147.797" r=".959" class="com-plans-server-11"/></g></g><g><g><circle cx="50.605" cy="157.506" r=".959" class="com-plans-server-11"/></g></g><g><g><g><path d="M99.151,23.494H51.204c-1.199,0-2.158-0.959-2.158-2.158v-2.637c0-1.199,0.959-2.158,2.158-2.158h47.947 c1.199,0,2.158,0.959,2.158,2.158v2.637C101.189,22.535,100.23,23.494,99.151,23.494z M51.084,17.141 c-0.839,0-1.678,0.719-1.678,1.678v2.637c0,0.839,0.719,1.678,1.678,1.678h47.947c0.839,0,1.678-0.719,1.678-1.678v-2.637 c0-0.839-0.719-1.678-1.678-1.678H51.084z" class="com-plans-server-18"/></g></g></g><g><g><rect width=".959" height="149.595" x="103.227" y="10.788" class="com-plans-server-11"/></g></g><g><g><circle cx="334.452" cy="40.995" r="2.277" class="com-plans-server-11"/></g></g><path d="M334.452,38.717c-0.103,0-12.483,0-12.586,0c-1.258,0-2.277,1.02-2.277,2.278 c0,1.258,1.02,2.277,2.277,2.277c0.103,0,12.483,0,12.586,0c1.258,0,2.278-1.02,2.278-2.277 C336.729,39.737,335.71,38.717,334.452,38.717z" class="com-plans-server-19"/><path d="M334.452,44.711c-0.103,0-12.483,0-12.586,0c-1.258,0-2.277,1.02-2.277,2.278 c0,1.258,1.02,2.277,2.277,2.277c0.103,0,12.483,0,12.586,0c1.258,0,2.278-1.02,2.278-2.277 C336.729,45.73,335.71,44.711,334.452,44.711z" class="com-plans-server-19"/><g><g><rect width="13.505" height="1.798" x="322.745" y="28.409" class="com-plans-server-11"/></g></g><g><g><path d="M169.873,19.179c-0.479,0-0.839,0.24-0.839,0.599v2.158c0,0.24,0.36,0.599,0.839,0.599h5.634v-3.356 H169.873L169.873,19.179z" class="com-plans-server-20"/></g></g><g><g><path d="M184.857,21.936v-2.158c0-0.24-0.36-0.599-0.839-0.599h-8.511v3.356h8.511 C184.497,22.535,184.857,22.295,184.857,21.936z" class="com-plans-server-21"/></g></g><g><g><rect width="48.546" height="4.076" x="110.299" y="18.22" class="com-plans-server-11"/></g></g><g><path d="M342.723,161.822H48.567c-1.678,0-2.997-1.319-2.997-2.997V2.997C45.57,1.319,46.889,0,48.567,0h294.156 c1.678,0,2.997,1.319,2.997,2.997v155.828C345.719,160.503,344.401,161.822,342.723,161.822z M48.567,1.199 c-0.959,0-1.798,0.839-1.798,1.798v155.828c0,0.959,0.839,1.798,1.798,1.798h294.156c0.959,0,1.798-0.839,1.798-1.798V2.997 c0-0.959-0.839-1.798-1.798-1.798H48.567z" class="com-plans-server-22"/></g></g></g></svg>