<svg xmlns="http://www.w3.org/2000/svg" width="182" height="146" viewBox="0 0 182 146"><style type="text/css">.st0{fill:#f6e65c}.st1{fill:none;stroke:#404041;stroke-width:3;stroke-linecap:round;stroke-linejoin:round;stroke-miterlimit:10}.st2{fill:#686b6e}.st3{fill:#50b964}.st4{fill:#404041}.st5,.st6{fill:#fff;stroke:#2eb459;stroke-width:3;stroke-linecap:round;stroke-linejoin:round;stroke-miterlimit:10}.st6{fill:none}</style><g><title>background</title><rect id="canvas_background" width="184" height="148" x="-1" y="-1" fill="none"/></g><g><title>Layer 1</title><g id="svg_277"><g id="svg_1"><g id="svg_2"><g id="svg_3"><g id="svg_4"><path id="svg_5" d="m179.130067,109.612934c-0.7,-1.3 -2,-2.1 -3.5,-2.1l-1.3,0l0,-7.5c0,-2.9 -2.4,-5.2 -5.3,-5.2l-3.3,0l0,-13.9c0,-0.1 0,-0.1 0,-0.2c0,-28.5 -17.8,-53 -43.2,-63.6l0,-3.8c0,-7.1 -20.3,-8.9 -26.6,-9c-6.1,0 -26,-0.8 -26.1,6.5c0,0.6 0,3.9 0,5c-27.1,9.8 -46.4,35.1 -46.4,64.8l0,14.1l-4.2,0c-2.9,0 -5.3,2.3 -5.3,5.2l0,7.5l-1.3,0c-1.5,0 -2.8,0.8 -3.5,2.1c-0.7,1.3 -0.6,2.8 0.2,4l11.5,16.4c2,2.9 5.4,4.7 9,4.7l49.9,0l13.6,0l65.2,0c3.6,0 7,-1.7 9,-4.7l11.5,-16.4c0.7,-1.1 0.8,-2.6 0.1,-3.9z" class="st0"/></g></g><g id="svg_6"><path id="svg_7" d="m20.830067,120.912934l0,-13c0,-1.9 -1.6,-3.5 -3.5,-3.5l-6.1,0c-1.9,0 -3.5,1.6 -3.5,3.5l0,9.6l-3.2,0c-1.7,0 -2.7,1.9 -1.8,3.3l11.5,16.9c1.7,2.5 4.5,4 7.5,4l63.6,0" class="st1"/><path id="svg_8" d="m151.530067,120.912934l0,-13c0,-1.9 1.6,-3.5 3.5,-3.5l6.1,0c1.9,0 3.5,1.6 3.5,3.5l0,9.6l3.2,0c1.7,0 2.7,1.9 1.8,3.3l-11.6,16.8c-1.7,2.5 -4.5,4 -7.5,4l-78.8,0" class="st1"/><line id="svg_9" x1="17.33" x2="17.33" y1="88.013" y2="104.413" class="st1"/><line id="svg_10" x1="155.93" x2="156.03" y1="88.013" y2="104.413" class="st1"/><path id="svg_11" d="m112.830067,23.812934c25.3,10.3 43.2,35.2 43.2,64.2" class="st1"/><path id="svg_12" d="m17.330067,88.012934c0,-30.3 19.4,-56 46.4,-65.4" class="st1"/><path id="svg_13" d="m63.830067,125.212934c0,0 -0.1,-97.1 0,-106.6c0.1,-8.5 49,-7.8 49,0l0,106.6" class="st1"/><path id="svg_14" d="m35.130067,123.012934c0,0 52.3,7.9 105.4,0" class="st1"/></g><g id="svg_15"><g id="svg_16"><circle id="svg_17" cx="117.33" cy="97.713" r="1.2" class="st2"/><circle id="svg_18" cx="122.23" cy="97.713" r="1.2" class="st2"/><circle id="svg_19" cx="127.13" cy="97.713" r="1.2" class="st2"/><circle id="svg_20" cx="132.03" cy="97.713" r="1.2" class="st2"/><circle id="svg_21" cx="136.93" cy="97.713" r="1.2" class="st2"/><circle id="svg_22" cx="141.73" cy="97.713" r="1.2" class="st2"/><circle id="svg_23" cx="146.63" cy="97.713" r="1.2" class="st2"/><circle id="svg_24" cx="151.53" cy="97.713" r="1.2" class="st2"/><circle id="svg_25" cx="119.83" cy="102.613" r="1.2" class="st2"/><circle id="svg_26" cx="124.73" cy="102.613" r="1.2" class="st2"/><circle id="svg_27" cx="129.53" cy="102.613" r="1.2" class="st2"/><circle id="svg_28" cx="134.43" cy="102.613" r="1.2" class="st2"/><circle id="svg_29" cx="139.33" cy="102.613" r="1.2" class="st2"/><circle id="svg_30" cx="144.23" cy="102.613" r="1.2" class="st2"/><circle id="svg_31" cx="149.13" cy="102.613" r="1.2" class="st2"/><circle id="svg_32" cx="117.33" cy="107.413" r="1.2" class="st2"/><circle id="svg_33" cx="122.23" cy="107.413" r="1.2" class="st2"/><circle id="svg_34" cx="127.13" cy="107.413" r="1.2" class="st2"/><circle id="svg_35" cx="132.03" cy="107.413" r="1.2" class="st2"/><circle id="svg_36" cx="136.93" cy="107.413" r="1.2" class="st2"/><circle id="svg_37" cx="141.73" cy="107.413" r="1.2" class="st2"/><circle id="svg_38" cx="146.63" cy="107.413" r="1.2" class="st2"/><circle id="svg_39" cx="151.53" cy="107.413" r="1.2" class="st2"/><circle id="svg_40" cx="119.83" cy="112.313" r="1.2" class="st2"/><circle id="svg_41" cx="124.73" cy="112.313" r="1.2" class="st2"/><circle id="svg_42" cx="129.53" cy="112.313" r="1.2" class="st2"/><circle id="svg_43" cx="134.43" cy="112.313" r="1.2" class="st2"/><circle id="svg_44" cx="139.33" cy="112.313" r="1.2" class="st2"/><circle id="svg_45" cx="144.23" cy="112.313" r="1.2" class="st2"/><circle id="svg_46" cx="149.13" cy="112.313" r="1.2" class="st2"/><circle id="svg_47" cx="117.33" cy="117.213" r="1.2" class="st2"/><circle id="svg_48" cx="122.23" cy="117.213" r="1.2" class="st2"/><circle id="svg_49" cx="127.13" cy="117.213" r="1.2" class="st2"/><circle id="svg_50" cx="132.03" cy="117.213" r="1.2" class="st2"/><circle id="svg_51" cx="136.93" cy="117.213" r="1.2" class="st2"/><circle id="svg_52" cx="141.73" cy="117.213" r="1.2" class="st2"/><circle id="svg_53" cx="146.63" cy="117.213" r="1.2" class="st2"/><circle id="svg_54" cx="151.53" cy="117.213" r="1.2" class="st2"/><circle id="svg_55" cx="156.43" cy="97.713" r="1.2" class="st2"/><circle id="svg_56" cx="161.33" cy="97.713" r="1.2" class="st2"/><circle id="svg_57" cx="166.13" cy="97.713" r="1.2" class="st2"/><circle id="svg_58" cx="119.83" cy="92.813" r="1.2" class="st2"/><circle id="svg_59" cx="124.73" cy="92.813" r="1.2" class="st2"/><circle id="svg_60" cx="129.53" cy="92.813" r="1.2" class="st2"/><circle id="svg_61" cx="134.43" cy="92.813" r="1.2" class="st2"/><circle id="svg_62" cx="139.33" cy="92.813" r="1.2" class="st2"/><circle id="svg_63" cx="144.23" cy="92.813" r="1.2" class="st2"/><circle id="svg_64" cx="149.13" cy="92.813" r="1.2" class="st2"/><circle id="svg_65" cx="153.93" cy="92.813" r="1.2" class="st2"/><circle id="svg_66" cx="158.83" cy="92.813" r="1.2" class="st2"/><circle id="svg_67" cx="153.93" cy="102.613" r="1.2" class="st2"/><circle id="svg_68" cx="158.83" cy="102.613" r="1.2" class="st2"/><circle id="svg_69" cx="163.73" cy="102.613" r="1.2" class="st2"/><circle id="svg_70" cx="168.63" cy="102.613" r="1.2" class="st2"/><circle id="svg_71" cx="156.43" cy="107.413" r="1.2" class="st2"/><circle id="svg_72" cx="161.33" cy="107.413" r="1.2" class="st2"/><circle id="svg_73" cx="166.13" cy="107.413" r="1.2" class="st2"/><circle id="svg_74" cx="171.03" cy="107.413" r="1.2" class="st2"/><circle id="svg_75" cx="153.93" cy="112.313" r="1.2" class="st2"/><circle id="svg_76" cx="158.83" cy="112.313" r="1.2" class="st2"/><circle id="svg_77" cx="163.73" cy="112.313" r="1.2" class="st2"/><circle id="svg_78" cx="168.63" cy="112.313" r="1.2" class="st2"/><circle id="svg_79" cx="173.53" cy="112.313" r="1.2" class="st2"/><circle id="svg_80" cx="156.43" cy="117.213" r="1.2" class="st2"/><circle id="svg_81" cx="161.33" cy="117.213" r="1.2" class="st2"/><circle id="svg_82" cx="166.13" cy="117.213" r="1.2" class="st2"/><circle id="svg_83" cx="171.03" cy="117.213" r="1.2" class="st2"/><circle id="svg_84" cx="71.03" cy="122.113" r="1.2" class="st2"/><circle id="svg_85" cx="75.93" cy="122.113" r="1.2" class="st2"/><circle id="svg_86" cx="80.73" cy="122.113" r="1.2" class="st2"/><circle id="svg_87" cx="85.63" cy="122.113" r="1.2" class="st2"/><circle id="svg_88" cx="90.53" cy="122.113" r="1.2" class="st2"/><circle id="svg_89" cx="95.43" cy="122.113" r="1.2" class="st2"/><circle id="svg_90" cx="100.33" cy="122.113" r="1.2" class="st2"/><circle id="svg_91" cx="78.33" cy="127.013" r="1.2" class="st2"/><circle id="svg_92" cx="83.23" cy="127.013" r="1.2" class="st2"/><circle id="svg_93" cx="88.13" cy="127.013" r="1.2" class="st2"/><circle id="svg_94" cx="92.93" cy="127.013" r="1.2" class="st2"/><circle id="svg_95" cx="97.83" cy="127.013" r="1.2" class="st2"/><circle id="svg_96" cx="102.73" cy="127.013" r="1.2" class="st2"/><circle id="svg_97" cx="85.63" cy="131.913" r="1.2" class="st2"/><circle id="svg_98" cx="90.53" cy="131.913" r="1.2" class="st2"/><circle id="svg_99" cx="95.43" cy="131.913" r="1.2" class="st2"/><circle id="svg_100" cx="100.33" cy="131.913" r="1.2" class="st2"/><circle id="svg_101" cx="92.93" cy="136.713" r="1.2" class="st2"/><circle id="svg_102" cx="97.83" cy="136.713" r="1.2" class="st2"/><circle id="svg_103" cx="102.73" cy="136.713" r="1.2" class="st2"/><circle id="svg_104" cx="105.13" cy="122.113" r="1.2" class="st2"/><circle id="svg_105" cx="110.03" cy="122.113" r="1.2" class="st2"/><circle id="svg_106" cx="114.93" cy="122.113" r="1.2" class="st2"/><circle id="svg_107" cx="119.83" cy="122.113" r="1.2" class="st2"/><circle id="svg_108" cx="124.73" cy="122.113" r="1.2" class="st2"/><circle id="svg_109" cx="129.53" cy="122.113" r="1.2" class="st2"/><circle id="svg_110" cx="134.43" cy="122.113" r="1.2" class="st2"/><circle id="svg_111" cx="139.33" cy="122.113" r="1.2" class="st2"/><circle id="svg_112" cx="144.23" cy="122.113" r="1.2" class="st2"/><circle id="svg_113" cx="149.13" cy="122.113" r="1.2" class="st2"/><circle id="svg_114" cx="107.63" cy="127.013" r="1.2" class="st2"/><circle id="svg_115" cx="112.53" cy="127.013" r="1.2" class="st2"/><circle id="svg_116" cx="117.33" cy="127.013" r="1.2" class="st2"/><circle id="svg_117" cx="122.23" cy="127.013" r="1.2" class="st2"/><circle id="svg_118" cx="127.13" cy="127.013" r="1.2" class="st2"/><circle id="svg_119" cx="132.03" cy="127.013" r="1.2" class="st2"/><circle id="svg_120" cx="136.93" cy="127.013" r="1.2" class="st2"/><circle id="svg_121" cx="141.73" cy="127.013" r="1.2" class="st2"/><circle id="svg_122" cx="146.63" cy="127.013" r="1.2" class="st2"/><circle id="svg_123" cx="151.53" cy="127.013" r="1.2" class="st2"/><circle id="svg_124" cx="105.13" cy="131.913" r="1.2" class="st2"/><circle id="svg_125" cx="110.03" cy="131.913" r="1.2" class="st2"/><circle id="svg_126" cx="114.93" cy="131.913" r="1.2" class="st2"/><circle id="svg_127" cx="119.83" cy="131.913" r="1.2" class="st2"/><circle id="svg_128" cx="124.73" cy="131.913" r="1.2" class="st2"/><circle id="svg_129" cx="129.53" cy="131.913" r="1.2" class="st2"/><circle id="svg_130" cx="134.43" cy="131.913" r="1.2" class="st2"/><circle id="svg_131" cx="139.33" cy="131.913" r="1.2" class="st2"/><circle id="svg_132" cx="144.23" cy="131.913" r="1.2" class="st2"/><circle id="svg_133" cx="149.13" cy="131.913" r="1.2" class="st2"/><circle id="svg_134" cx="107.63" cy="136.713" r="1.2" class="st2"/><circle id="svg_135" cx="112.53" cy="136.713" r="1.2" class="st2"/><circle id="svg_136" cx="117.33" cy="136.713" r="1.2" class="st2"/><circle id="svg_137" cx="122.23" cy="136.713" r="1.2" class="st2"/><circle id="svg_138" cx="127.13" cy="136.713" r="1.2" class="st2"/><circle id="svg_139" cx="132.03" cy="136.713" r="1.2" class="st2"/><circle id="svg_140" cx="136.93" cy="136.713" r="1.2" class="st2"/><circle id="svg_141" cx="141.73" cy="136.713" r="1.2" class="st2"/><circle id="svg_142" cx="146.63" cy="136.713" r="1.2" class="st2"/><circle id="svg_143" cx="151.53" cy="136.713" r="1.2" class="st2"/><circle id="svg_144" cx="153.93" cy="122.113" r="1.2" class="st2"/><circle id="svg_145" cx="158.83" cy="122.113" r="1.2" class="st2"/><circle id="svg_146" cx="163.73" cy="122.113" r="1.2" class="st2"/><circle id="svg_147" cx="168.63" cy="122.113" r="1.2" class="st2"/><circle id="svg_148" cx="156.43" cy="127.013" r="1.2" class="st2"/><circle id="svg_149" cx="161.33" cy="127.013" r="1.2" class="st2"/><circle id="svg_150" cx="166.13" cy="127.013" r="1.2" class="st2"/><circle id="svg_151" cx="153.93" cy="131.913" r="1.2" class="st2"/><circle id="svg_152" cx="158.83" cy="131.913" r="1.2" class="st2"/><circle id="svg_153" cx="163.73" cy="131.913" r="1.2" class="st2"/><circle id="svg_154" cx="156.43" cy="136.713" r="1.2" class="st2"/><circle id="svg_155" cx="161.33" cy="136.713" r="1.2" class="st2"/><g id="svg_156"><g id="svg_157"><circle id="svg_158" cx="117.33" cy="39.113" r="1.2" class="st2"/><circle id="svg_159" cx="122.23" cy="39.113" r="1.2" class="st2"/><circle id="svg_160" cx="127.13" cy="39.113" r="1.2" class="st2"/><circle id="svg_161" cx="132.03" cy="39.113" r="1.2" class="st2"/><circle id="svg_162" cx="136.93" cy="39.113" r="1.2" class="st2"/><circle id="svg_163" cx="141.73" cy="39.113" r="1.2" class="st2"/><circle id="svg_164" cx="146.63" cy="39.113" r="1.2" class="st2"/><circle id="svg_165" cx="119.83" cy="44.013" r="1.2" class="st2"/><circle id="svg_166" cx="124.73" cy="44.013" r="1.2" class="st2"/><circle id="svg_167" cx="129.53" cy="44.013" r="1.2" class="st2"/><circle id="svg_168" cx="134.43" cy="44.013" r="1.2" class="st2"/><circle id="svg_169" cx="139.33" cy="44.013" r="1.2" class="st2"/><circle id="svg_170" cx="144.23" cy="44.013" r="1.2" class="st2"/><circle id="svg_171" cx="149.13" cy="44.013" r="1.2" class="st2"/><circle id="svg_172" cx="117.33" cy="48.913" r="1.2" class="st2"/><circle id="svg_173" cx="122.23" cy="48.913" r="1.2" class="st2"/><circle id="svg_174" cx="127.13" cy="48.913" r="1.2" class="st2"/><circle id="svg_175" cx="132.03" cy="48.913" r="1.2" class="st2"/><circle id="svg_176" cx="136.93" cy="48.913" r="1.2" class="st2"/><circle id="svg_177" cx="141.73" cy="48.913" r="1.2" class="st2"/><circle id="svg_178" cx="146.63" cy="48.913" r="1.2" class="st2"/><circle id="svg_179" cx="151.53" cy="48.913" r="1.2" class="st2"/><circle id="svg_180" cx="119.83" cy="53.813" r="1.2" class="st2"/><circle id="svg_181" cx="124.73" cy="53.813" r="1.2" class="st2"/><circle id="svg_182" cx="129.53" cy="53.813" r="1.2" class="st2"/><circle id="svg_183" cx="134.43" cy="53.813" r="1.2" class="st2"/><circle id="svg_184" cx="139.33" cy="53.813" r="1.2" class="st2"/><circle id="svg_185" cx="144.23" cy="53.813" r="1.2" class="st2"/><circle id="svg_186" cx="149.13" cy="53.813" r="1.2" class="st2"/><circle id="svg_187" cx="117.33" cy="58.613" r="1.2" class="st2"/><circle id="svg_188" cx="122.23" cy="58.613" r="1.2" class="st2"/><circle id="svg_189" cx="127.13" cy="58.613" r="1.2" class="st2"/><circle id="svg_190" cx="132.03" cy="58.613" r="1.2" class="st2"/><circle id="svg_191" cx="136.93" cy="58.613" r="1.2" class="st2"/><circle id="svg_192" cx="141.73" cy="58.613" r="1.2" class="st2"/><circle id="svg_193" cx="146.63" cy="58.613" r="1.2" class="st2"/><circle id="svg_194" cx="151.53" cy="58.613" r="1.2" class="st2"/><circle id="svg_195" cx="119.83" cy="34.213" r="1.2" class="st2"/><circle id="svg_196" cx="124.73" cy="34.213" r="1.2" class="st2"/><circle id="svg_197" cx="129.53" cy="34.213" r="1.2" class="st2"/><circle id="svg_198" cx="134.43" cy="34.213" r="1.2" class="st2"/><circle id="svg_199" cx="139.33" cy="34.213" r="1.2" class="st2"/><circle id="svg_200" cx="117.33" cy="29.413" r="1.2" class="st2"/><circle id="svg_201" cx="122.23" cy="29.413" r="1.2" class="st2"/><circle id="svg_202" cx="127.13" cy="29.413" r="1.2" class="st2"/><circle id="svg_203" cx="132.03" cy="29.413" r="1.2" class="st2"/><circle id="svg_204" cx="136.93" cy="29.413" r="1.2" class="st2"/><circle id="svg_205" cx="119.83" cy="34.213" r="1.2" class="st2"/><circle id="svg_206" cx="124.73" cy="34.213" r="1.2" class="st2"/><circle id="svg_207" cx="129.53" cy="34.213" r="1.2" class="st2"/><circle id="svg_208" cx="134.43" cy="34.213" r="1.2" class="st2"/><circle id="svg_209" cx="139.33" cy="34.213" r="1.2" class="st2"/><circle id="svg_210" cx="119.83" cy="24.513" r="1.2" class="st2"/><circle id="svg_211" cx="124.73" cy="24.513" r="1.2" class="st2"/><circle id="svg_212" cx="129.53" cy="24.513" r="1.2" class="st2"/><circle id="svg_213" cx="153.93" cy="53.813" r="1.2" class="st2"/><circle id="svg_214" cx="156.43" cy="58.613" r="1.2" class="st2"/><circle id="svg_215" cx="119.83" cy="63.513" r="1.2" class="st2"/><circle id="svg_216" cx="124.73" cy="63.513" r="1.2" class="st2"/><circle id="svg_217" cx="129.53" cy="63.513" r="1.2" class="st2"/><circle id="svg_218" cx="134.43" cy="63.513" r="1.2" class="st2"/><circle id="svg_219" cx="139.33" cy="63.513" r="1.2" class="st2"/><circle id="svg_220" cx="144.23" cy="63.513" r="1.2" class="st2"/><circle id="svg_221" cx="149.13" cy="63.513" r="1.2" class="st2"/><circle id="svg_222" cx="117.33" cy="68.413" r="1.2" class="st2"/><circle id="svg_223" cx="122.23" cy="68.413" r="1.2" class="st2"/><circle id="svg_224" cx="127.13" cy="68.413" r="1.2" class="st2"/><circle id="svg_225" cx="132.03" cy="68.413" r="1.2" class="st2"/><circle id="svg_226" cx="136.93" cy="68.413" r="1.2" class="st2"/><circle id="svg_227" cx="141.73" cy="68.413" r="1.2" class="st2"/><circle id="svg_228" cx="146.63" cy="68.413" r="1.2" class="st2"/><circle id="svg_229" cx="151.53" cy="68.413" r="1.2" class="st2"/><circle id="svg_230" cx="119.83" cy="73.313" r="1.2" class="st2"/><circle id="svg_231" cx="124.73" cy="73.313" r="1.2" class="st2"/><circle id="svg_232" cx="129.53" cy="73.313" r="1.2" class="st2"/><circle id="svg_233" cx="134.43" cy="73.313" r="1.2" class="st2"/><circle id="svg_234" cx="139.33" cy="73.313" r="1.2" class="st2"/><circle id="svg_235" cx="144.23" cy="73.313" r="1.2" class="st2"/><circle id="svg_236" cx="149.13" cy="73.313" r="1.2" class="st2"/><circle id="svg_237" cx="117.33" cy="78.213" r="1.2" class="st2"/><circle id="svg_238" cx="122.23" cy="78.213" r="1.2" class="st2"/><circle id="svg_239" cx="127.13" cy="78.213" r="1.2" class="st2"/><circle id="svg_240" cx="132.03" cy="78.213" r="1.2" class="st2"/><circle id="svg_241" cx="136.93" cy="78.213" r="1.2" class="st2"/><circle id="svg_242" cx="141.73" cy="78.213" r="1.2" class="st2"/><circle id="svg_243" cx="146.63" cy="78.213" r="1.2" class="st2"/><circle id="svg_244" cx="151.53" cy="78.213" r="1.2" class="st2"/><circle id="svg_245" cx="119.83" cy="83.013" r="1.2" class="st2"/><circle id="svg_246" cx="124.73" cy="83.013" r="1.2" class="st2"/><circle id="svg_247" cx="129.53" cy="83.013" r="1.2" class="st2"/><circle id="svg_248" cx="134.43" cy="83.013" r="1.2" class="st2"/><circle id="svg_249" cx="139.33" cy="83.013" r="1.2" class="st2"/><circle id="svg_250" cx="144.23" cy="83.013" r="1.2" class="st2"/><circle id="svg_251" cx="149.13" cy="83.013" r="1.2" class="st2"/><circle id="svg_252" cx="117.33" cy="87.913" r="1.2" class="st2"/><circle id="svg_253" cx="122.23" cy="87.913" r="1.2" class="st2"/><circle id="svg_254" cx="127.13" cy="87.913" r="1.2" class="st2"/><circle id="svg_255" cx="132.03" cy="87.913" r="1.2" class="st2"/><circle id="svg_256" cx="136.93" cy="87.913" r="1.2" class="st2"/><circle id="svg_257" cx="141.73" cy="87.913" r="1.2" class="st2"/><circle id="svg_258" cx="146.63" cy="87.913" r="1.2" class="st2"/><circle id="svg_259" cx="151.53" cy="87.913" r="1.2" class="st2"/><circle id="svg_260" cx="153.93" cy="63.513" r="1.2" class="st2"/><circle id="svg_261" cx="158.83" cy="63.513" r="1.2" class="st2"/><circle id="svg_262" cx="156.43" cy="68.413" r="1.2" class="st2"/><circle id="svg_263" cx="153.93" cy="73.313" r="1.2" class="st2"/><circle id="svg_264" cx="158.83" cy="73.313" r="1.2" class="st2"/><circle id="svg_265" cx="156.43" cy="78.213" r="1.2" class="st2"/><circle id="svg_266" cx="161.33" cy="78.213" r="1.2" class="st2"/><circle id="svg_267" cx="153.93" cy="83.013" r="1.2" class="st2"/><circle id="svg_268" cx="158.83" cy="83.013" r="1.2" class="st2"/><circle id="svg_269" cx="156.43" cy="87.913" r="1.2" class="st2"/><circle id="svg_270" cx="161.33" cy="87.913" r="1.2" class="st2"/></g></g></g></g></g><g id="svg_271"><path id="svg_272" d="m84.230067,102.412934c-1.5,0 -2.7,-1.2 -2.7,-2.7l0,-1.9c0,-1.5 1.2,-2.7 2.7,-2.7l0.4,0l0,-20.1l-4.6,0l0,1.1c0,1.5 -1.2,2.7 -2.7,2.7l-1.3,0c-1.5,0 -2.7,-1.2 -2.7,-2.7l0,-5.1c0,-1.5 1.2,-2.7 2.7,-2.7l24.5,0c1.5,0 2.7,1.2 2.7,2.7l0,5.1c0,1.5 -1.2,2.7 -2.7,2.7l-1.2,0c-1.5,0 -2.7,-1.2 -2.7,-2.7l0,-1.1l-4.6,0l0,20.1l0.4,0c1.5,0 2.7,1.2 2.7,2.7l0,1.8c0,1.5 -1.2,2.7 -2.7,2.7l-8.2,0l0,0.1z" class="st3"/><path id="svg_273" d="m100.530067,69.812934c0.7,0 1.2,0.5 1.2,1.2l0,5.1c0,0.7 -0.5,1.2 -1.2,1.2l-1.2,0c-0.7,0 -1.2,-0.5 -1.2,-1.2l0,-1.4c0,-0.7 -0.5,-1.2 -1.2,-1.2l-5.2,0c-0.7,0 -1.2,0.5 -1.2,1.2l0,20.7c0,0.7 0.5,1.2 1.2,1.2l0.7,0c0.7,0 1.2,0.5 1.2,1.2l0,1.8c0,0.7 -0.5,1.2 -1.2,1.2l-8.2,0c-0.7,0 -1.2,-0.5 -1.2,-1.2l0,-1.8c0,-0.7 0.5,-1.2 1.2,-1.2l0.7,0c0.7,0 1.2,-0.5 1.2,-1.2l0,-20.7c0,-0.7 -0.5,-1.2 -1.2,-1.2l-5.2,0c-0.7,0 -1.2,0.5 -1.2,1.2l0,1.4c0,0.7 -0.5,1.2 -1.2,1.2l-1.3,0c-0.7,0 -1.2,-0.5 -1.2,-1.2l0,-5.1c0,-0.7 0.5,-1.2 1.2,-1.2l13.2,0c0.7,0 1.8,0 2.4,0l4.9,0c0.7,0 1.8,0 2.4,0l1.6,0m0,-3l-1.6,0l-2.4,0l-4.9,0l-2.4,0l-13.2,0c-2.3,0 -4.2,1.9 -4.2,4.2l0,5.1c0,2.3 1.9,4.2 4.2,4.2l1.2,0c2.2,0 4,-1.7 4.2,-3.8l1.6,0l0,17.2c-1.8,0.5 -3.1,2.1 -3.1,4.1l0,1.8c0,2.3 1.9,4.2 4.2,4.2l8.2,0c2.3,0 4.2,-1.9 4.2,-4.2l0,-1.8c0,-2 -1.3,-3.6 -3.1,-4.1l0,-17.2l1.6,0c0.2,2.1 2,3.8 4.2,3.8l1.2,0c2.3,0 4.2,-1.9 4.2,-4.2l0,-5.1c0.1,-2.3 -1.8,-4.2 -4.1,-4.2l0,0z" class="st4"/></g></g><g id="svg_274"><circle id="svg_275" cx="136.33" cy="29.813" r="15.9" class="st5"/><polyline id="svg_276" points="129.43 30.313 135.53 35.213 143.13 24.513" class="st6"/></g></g></g></svg>