<svg xmlns="http://www.w3.org/2000/svg" width="184" height="144" viewBox="0 0 184 144"><style type="text/css">.st0{fill:#f6e65c}.st1{fill:none;stroke:#404041;stroke-width:3;stroke-linecap:round;stroke-linejoin:round;stroke-miterlimit:10}.st2{fill:#686b6e}.st3{fill:#50b964}.st4{fill:#404041}</style><g><title>background</title><rect id="canvas_background" width="186" height="146" x="-1" y="-1" fill="none"/></g><g><title>Layer 1</title><g id="svg_1"><g id="svg_2"><g id="svg_3"><g id="svg_4"><path id="svg_5" d="m180.130067,108.612927c-0.7,-1.3 -2,-2.1 -3.5,-2.1l-1.3,0l0,-7.5c0,-2.9 -2.4,-5.2 -5.3,-5.2l-3.3,0l0,-13.9c0,-0.1 0,-0.1 0,-0.2c0,-28.5 -17.8,-53 -43.2,-63.6l0,-3.8c0,-7.1 -20.3,-8.9 -26.6,-9c-6.1,0 -26,-0.8 -26.1,6.5c0,0.6 0,3.9 0,5c-27.1,9.8 -46.4,35.1 -46.4,64.8l0,14.1l-4.2,0c-2.9,0 -5.3,2.3 -5.3,5.2l0,7.5l-1.3,0c-1.5,0 -2.8,0.8 -3.5,2.1c-0.7,1.3 -0.6,2.8 0.2,4l11.5,16.4c2,2.9 5.4,4.7 9,4.7l49.9,0l13.6,0l65.2,0c3.6,0 7,-1.7 9,-4.7l11.5,-16.4c0.7,-1.1 0.8,-2.6 0.1,-3.9z" class="st0"/></g></g><g id="svg_6"><path id="svg_7" d="m21.830067,119.912927l0,-13c0,-1.9 -1.6,-3.5 -3.5,-3.5l-6.1,0c-1.9,0 -3.5,1.6 -3.5,3.5l0,9.6l-3.2,0c-1.7,0 -2.7,1.9 -1.8,3.3l11.5,16.9c1.7,2.5 4.5,4 7.5,4l63.6,0" class="st1"/><path id="svg_8" d="m152.430067,119.912927l0,-13c0,-1.9 1.6,-3.5 3.5,-3.5l6.1,0c1.9,0 3.5,1.6 3.5,3.5l0,9.6l3.2,0c1.7,0 2.7,1.9 1.8,3.3l-11.5,16.9c-1.7,2.5 -4.5,4 -7.5,4l-78.8,0" class="st1"/><line id="svg_9" x1="18.33" x2="18.33" y1="87.013" y2="103.413" class="st1"/><line id="svg_10" x1="156.93" x2="156.93" y1="87.013" y2="103.413" class="st1"/><path id="svg_11" d="m113.730067,22.812927c25.3,10.3 43.2,35.2 43.2,64.2" class="st1"/><path id="svg_12" d="m18.330067,87.012927c0,-30.3 19.4,-56 46.4,-65.4" class="st1"/><path id="svg_13" d="m64.730067,124.312927c0,0 -0.1,-97.1 0,-106.6c0.1,-8.5 49,-7.8 49,0l0,106.6" class="st1"/><path id="svg_14" d="m36.130067,122.012927c0,0 52.3,7.9 105.4,0" class="st1"/></g><g id="svg_15"><g id="svg_16"><circle id="svg_17" cx="118.33" cy="96.713" r="1.2" class="st2"/><circle id="svg_18" cx="123.23" cy="96.713" r="1.2" class="st2"/><circle id="svg_19" cx="128.03" cy="96.713" r="1.2" class="st2"/><circle id="svg_20" cx="132.93" cy="96.713" r="1.2" class="st2"/><circle id="svg_21" cx="137.83" cy="96.713" r="1.2" class="st2"/><circle id="svg_22" cx="142.73" cy="96.713" r="1.2" class="st2"/><circle id="svg_23" cx="147.63" cy="96.713" r="1.2" class="st2"/><circle id="svg_24" cx="152.43" cy="96.713" r="1.2" class="st2"/><circle id="svg_25" cx="120.73" cy="101.613" r="1.2" class="st2"/><circle id="svg_26" cx="125.63" cy="101.613" r="1.2" class="st2"/><circle id="svg_27" cx="130.53" cy="101.613" r="1.2" class="st2"/><circle id="svg_28" cx="135.43" cy="101.613" r="1.2" class="st2"/><circle id="svg_29" cx="140.23" cy="101.613" r="1.2" class="st2"/><circle id="svg_30" cx="145.13" cy="101.613" r="1.2" class="st2"/><circle id="svg_31" cx="150.03" cy="101.613" r="1.2" class="st2"/><circle id="svg_32" cx="118.33" cy="106.513" r="1.2" class="st2"/><circle id="svg_33" cx="123.23" cy="106.513" r="1.2" class="st2"/><circle id="svg_34" cx="128.03" cy="106.513" r="1.2" class="st2"/><circle id="svg_35" cx="132.93" cy="106.513" r="1.2" class="st2"/><circle id="svg_36" cx="137.83" cy="106.513" r="1.2" class="st2"/><circle id="svg_37" cx="142.73" cy="106.513" r="1.2" class="st2"/><circle id="svg_38" cx="147.63" cy="106.513" r="1.2" class="st2"/><circle id="svg_39" cx="152.43" cy="106.513" r="1.2" class="st2"/><circle id="svg_40" cx="120.73" cy="111.413" r="1.2" class="st2"/><circle id="svg_41" cx="125.63" cy="111.413" r="1.2" class="st2"/><circle id="svg_42" cx="130.53" cy="111.413" r="1.2" class="st2"/><circle id="svg_43" cx="135.43" cy="111.413" r="1.2" class="st2"/><circle id="svg_44" cx="140.23" cy="111.413" r="1.2" class="st2"/><circle id="svg_45" cx="145.13" cy="111.413" r="1.2" class="st2"/><circle id="svg_46" cx="150.03" cy="111.413" r="1.2" class="st2"/><circle id="svg_47" cx="118.33" cy="116.213" r="1.2" class="st2"/><circle id="svg_48" cx="123.23" cy="116.213" r="1.2" class="st2"/><circle id="svg_49" cx="128.03" cy="116.213" r="1.2" class="st2"/><circle id="svg_50" cx="132.93" cy="116.213" r="1.2" class="st2"/><circle id="svg_51" cx="137.83" cy="116.213" r="1.2" class="st2"/><circle id="svg_52" cx="142.73" cy="116.213" r="1.2" class="st2"/><circle id="svg_53" cx="147.63" cy="116.213" r="1.2" class="st2"/><circle id="svg_54" cx="152.43" cy="116.213" r="1.2" class="st2"/><circle id="svg_55" cx="157.33" cy="96.713" r="1.2" class="st2"/><circle id="svg_56" cx="162.23" cy="96.713" r="1.2" class="st2"/><circle id="svg_57" cx="167.13" cy="96.713" r="1.2" class="st2"/><circle id="svg_58" cx="120.73" cy="91.813" r="1.2" class="st2"/><circle id="svg_59" cx="125.63" cy="91.813" r="1.2" class="st2"/><circle id="svg_60" cx="130.53" cy="91.813" r="1.2" class="st2"/><circle id="svg_61" cx="135.43" cy="91.813" r="1.2" class="st2"/><circle id="svg_62" cx="140.23" cy="91.813" r="1.2" class="st2"/><circle id="svg_63" cx="145.13" cy="91.813" r="1.2" class="st2"/><circle id="svg_64" cx="150.03" cy="91.813" r="1.2" class="st2"/><circle id="svg_65" cx="154.93" cy="91.813" r="1.2" class="st2"/><circle id="svg_66" cx="159.83" cy="91.813" r="1.2" class="st2"/><circle id="svg_67" cx="154.93" cy="101.613" r="1.2" class="st2"/><circle id="svg_68" cx="159.83" cy="101.613" r="1.2" class="st2"/><circle id="svg_69" cx="164.63" cy="101.613" r="1.2" class="st2"/><circle id="svg_70" cx="169.53" cy="101.613" r="1.2" class="st2"/><circle id="svg_71" cx="157.33" cy="106.513" r="1.2" class="st2"/><circle id="svg_72" cx="162.23" cy="106.513" r="1.2" class="st2"/><circle id="svg_73" cx="167.13" cy="106.513" r="1.2" class="st2"/><circle id="svg_74" cx="172.03" cy="106.513" r="1.2" class="st2"/><circle id="svg_75" cx="154.93" cy="111.413" r="1.2" class="st2"/><circle id="svg_76" cx="159.83" cy="111.413" r="1.2" class="st2"/><circle id="svg_77" cx="164.63" cy="111.413" r="1.2" class="st2"/><circle id="svg_78" cx="169.53" cy="111.413" r="1.2" class="st2"/><circle id="svg_79" cx="174.43" cy="111.413" r="1.2" class="st2"/><circle id="svg_80" cx="157.33" cy="116.213" r="1.2" class="st2"/><circle id="svg_81" cx="162.23" cy="116.213" r="1.2" class="st2"/><circle id="svg_82" cx="167.13" cy="116.213" r="1.2" class="st2"/><circle id="svg_83" cx="172.03" cy="116.213" r="1.2" class="st2"/><circle id="svg_84" cx="71.93" cy="121.113" r="1.2" class="st2"/><circle id="svg_85" cx="76.83" cy="121.113" r="1.2" class="st2"/><circle id="svg_86" cx="81.73" cy="121.113" r="1.2" class="st2"/><circle id="svg_87" cx="86.63" cy="121.113" r="1.2" class="st2"/><circle id="svg_88" cx="91.43" cy="121.113" r="1.2" class="st2"/><circle id="svg_89" cx="96.33" cy="121.113" r="1.2" class="st2"/><circle id="svg_90" cx="101.23" cy="121.113" r="1.2" class="st2"/><circle id="svg_91" cx="79.23" cy="126.013" r="1.2" class="st2"/><circle id="svg_92" cx="84.13" cy="126.013" r="1.2" class="st2"/><circle id="svg_93" cx="89.03" cy="126.013" r="1.2" class="st2"/><circle id="svg_94" cx="93.93" cy="126.013" r="1.2" class="st2"/><circle id="svg_95" cx="98.83" cy="126.013" r="1.2" class="st2"/><circle id="svg_96" cx="103.63" cy="126.013" r="1.2" class="st2"/><circle id="svg_97" cx="86.63" cy="130.913" r="1.2" class="st2"/><circle id="svg_98" cx="91.43" cy="130.913" r="1.2" class="st2"/><circle id="svg_99" cx="96.33" cy="130.913" r="1.2" class="st2"/><circle id="svg_100" cx="101.23" cy="130.913" r="1.2" class="st2"/><circle id="svg_101" cx="93.93" cy="135.813" r="1.2" class="st2"/><circle id="svg_102" cx="98.83" cy="135.813" r="1.2" class="st2"/><circle id="svg_103" cx="103.63" cy="135.813" r="1.2" class="st2"/><circle id="svg_104" cx="106.13" cy="121.113" r="1.2" class="st2"/><circle id="svg_105" cx="111.03" cy="121.113" r="1.2" class="st2"/><circle id="svg_106" cx="115.83" cy="121.113" r="1.2" class="st2"/><circle id="svg_107" cx="120.73" cy="121.113" r="1.2" class="st2"/><circle id="svg_108" cx="125.63" cy="121.113" r="1.2" class="st2"/><circle id="svg_109" cx="130.53" cy="121.113" r="1.2" class="st2"/><circle id="svg_110" cx="135.43" cy="121.113" r="1.2" class="st2"/><circle id="svg_111" cx="140.23" cy="121.113" r="1.2" class="st2"/><circle id="svg_112" cx="145.13" cy="121.113" r="1.2" class="st2"/><circle id="svg_113" cx="150.03" cy="121.113" r="1.2" class="st2"/><circle id="svg_114" cx="108.53" cy="126.013" r="1.2" class="st2"/><circle id="svg_115" cx="113.43" cy="126.013" r="1.2" class="st2"/><circle id="svg_116" cx="118.33" cy="126.013" r="1.2" class="st2"/><circle id="svg_117" cx="123.23" cy="126.013" r="1.2" class="st2"/><circle id="svg_118" cx="128.03" cy="126.013" r="1.2" class="st2"/><circle id="svg_119" cx="132.93" cy="126.013" r="1.2" class="st2"/><circle id="svg_120" cx="137.83" cy="126.013" r="1.2" class="st2"/><circle id="svg_121" cx="142.73" cy="126.013" r="1.2" class="st2"/><circle id="svg_122" cx="147.63" cy="126.013" r="1.2" class="st2"/><circle id="svg_123" cx="152.43" cy="126.013" r="1.2" class="st2"/><circle id="svg_124" cx="106.13" cy="130.913" r="1.2" class="st2"/><circle id="svg_125" cx="111.03" cy="130.913" r="1.2" class="st2"/><circle id="svg_126" cx="115.83" cy="130.913" r="1.2" class="st2"/><circle id="svg_127" cx="120.73" cy="130.913" r="1.2" class="st2"/><circle id="svg_128" cx="125.63" cy="130.913" r="1.2" class="st2"/><circle id="svg_129" cx="130.53" cy="130.913" r="1.2" class="st2"/><circle id="svg_130" cx="135.43" cy="130.913" r="1.2" class="st2"/><circle id="svg_131" cx="140.23" cy="130.913" r="1.2" class="st2"/><circle id="svg_132" cx="145.13" cy="130.913" r="1.2" class="st2"/><circle id="svg_133" cx="150.03" cy="130.913" r="1.2" class="st2"/><circle id="svg_134" cx="108.53" cy="135.813" r="1.2" class="st2"/><circle id="svg_135" cx="113.43" cy="135.813" r="1.2" class="st2"/><circle id="svg_136" cx="118.33" cy="135.813" r="1.2" class="st2"/><circle id="svg_137" cx="123.23" cy="135.813" r="1.2" class="st2"/><circle id="svg_138" cx="128.03" cy="135.813" r="1.2" class="st2"/><circle id="svg_139" cx="132.93" cy="135.813" r="1.2" class="st2"/><circle id="svg_140" cx="137.83" cy="135.813" r="1.2" class="st2"/><circle id="svg_141" cx="142.73" cy="135.813" r="1.2" class="st2"/><circle id="svg_142" cx="147.63" cy="135.813" r="1.2" class="st2"/><circle id="svg_143" cx="152.43" cy="135.813" r="1.2" class="st2"/><circle id="svg_144" cx="154.93" cy="121.113" r="1.2" class="st2"/><circle id="svg_145" cx="159.83" cy="121.113" r="1.2" class="st2"/><circle id="svg_146" cx="164.63" cy="121.113" r="1.2" class="st2"/><circle id="svg_147" cx="169.53" cy="121.113" r="1.2" class="st2"/><circle id="svg_148" cx="157.33" cy="126.013" r="1.2" class="st2"/><circle id="svg_149" cx="162.23" cy="126.013" r="1.2" class="st2"/><circle id="svg_150" cx="167.13" cy="126.013" r="1.2" class="st2"/><circle id="svg_151" cx="154.93" cy="130.913" r="1.2" class="st2"/><circle id="svg_152" cx="159.83" cy="130.913" r="1.2" class="st2"/><circle id="svg_153" cx="164.63" cy="130.913" r="1.2" class="st2"/><circle id="svg_154" cx="157.33" cy="135.813" r="1.2" class="st2"/><circle id="svg_155" cx="162.23" cy="135.813" r="1.2" class="st2"/><g id="svg_156"><g id="svg_157"><circle id="svg_158" cx="118.33" cy="38.213" r="1.2" class="st2"/><circle id="svg_159" cx="123.23" cy="38.213" r="1.2" class="st2"/><circle id="svg_160" cx="128.03" cy="38.213" r="1.2" class="st2"/><circle id="svg_161" cx="132.93" cy="38.213" r="1.2" class="st2"/><circle id="svg_162" cx="137.83" cy="38.213" r="1.2" class="st2"/><circle id="svg_163" cx="142.73" cy="38.213" r="1.2" class="st2"/><circle id="svg_164" cx="147.63" cy="38.213" r="1.2" class="st2"/><circle id="svg_165" cx="120.73" cy="43.013" r="1.2" class="st2"/><circle id="svg_166" cx="125.63" cy="43.013" r="1.2" class="st2"/><circle id="svg_167" cx="130.53" cy="43.013" r="1.2" class="st2"/><circle id="svg_168" cx="135.43" cy="43.013" r="1.2" class="st2"/><circle id="svg_169" cx="140.23" cy="43.013" r="1.2" class="st2"/><circle id="svg_170" cx="145.13" cy="43.013" r="1.2" class="st2"/><circle id="svg_171" cx="150.03" cy="43.013" r="1.2" class="st2"/><circle id="svg_172" cx="118.33" cy="47.913" r="1.2" class="st2"/><circle id="svg_173" cx="123.23" cy="47.913" r="1.2" class="st2"/><circle id="svg_174" cx="128.03" cy="47.913" r="1.2" class="st2"/><circle id="svg_175" cx="132.93" cy="47.913" r="1.2" class="st2"/><circle id="svg_176" cx="137.83" cy="47.913" r="1.2" class="st2"/><circle id="svg_177" cx="142.73" cy="47.913" r="1.2" class="st2"/><circle id="svg_178" cx="147.63" cy="47.913" r="1.2" class="st2"/><circle id="svg_179" cx="152.43" cy="47.913" r="1.2" class="st2"/><circle id="svg_180" cx="120.73" cy="52.813" r="1.2" class="st2"/><circle id="svg_181" cx="125.63" cy="52.813" r="1.2" class="st2"/><circle id="svg_182" cx="130.53" cy="52.813" r="1.2" class="st2"/><circle id="svg_183" cx="135.43" cy="52.813" r="1.2" class="st2"/><circle id="svg_184" cx="140.23" cy="52.813" r="1.2" class="st2"/><circle id="svg_185" cx="145.13" cy="52.813" r="1.2" class="st2"/><circle id="svg_186" cx="150.03" cy="52.813" r="1.2" class="st2"/><circle id="svg_187" cx="118.33" cy="57.713" r="1.2" class="st2"/><circle id="svg_188" cx="123.23" cy="57.713" r="1.2" class="st2"/><circle id="svg_189" cx="128.03" cy="57.713" r="1.2" class="st2"/><circle id="svg_190" cx="132.93" cy="57.713" r="1.2" class="st2"/><circle id="svg_191" cx="137.83" cy="57.713" r="1.2" class="st2"/><circle id="svg_192" cx="142.73" cy="57.713" r="1.2" class="st2"/><circle id="svg_193" cx="147.63" cy="57.713" r="1.2" class="st2"/><circle id="svg_194" cx="152.43" cy="57.713" r="1.2" class="st2"/><circle id="svg_195" cx="120.73" cy="33.313" r="1.2" class="st2"/><circle id="svg_196" cx="125.63" cy="33.313" r="1.2" class="st2"/><circle id="svg_197" cx="130.53" cy="33.313" r="1.2" class="st2"/><circle id="svg_198" cx="135.43" cy="33.313" r="1.2" class="st2"/><circle id="svg_199" cx="140.23" cy="33.313" r="1.2" class="st2"/><circle id="svg_200" cx="118.33" cy="28.413" r="1.2" class="st2"/><circle id="svg_201" cx="123.23" cy="28.413" r="1.2" class="st2"/><circle id="svg_202" cx="128.03" cy="28.413" r="1.2" class="st2"/><circle id="svg_203" cx="132.93" cy="28.413" r="1.2" class="st2"/><circle id="svg_204" cx="137.83" cy="28.413" r="1.2" class="st2"/><circle id="svg_205" cx="120.73" cy="33.313" r="1.2" class="st2"/><circle id="svg_206" cx="125.63" cy="33.313" r="1.2" class="st2"/><circle id="svg_207" cx="130.53" cy="33.313" r="1.2" class="st2"/><circle id="svg_208" cx="135.43" cy="33.313" r="1.2" class="st2"/><circle id="svg_209" cx="140.23" cy="33.313" r="1.2" class="st2"/><circle id="svg_210" cx="120.73" cy="23.513" r="1.2" class="st2"/><circle id="svg_211" cx="125.63" cy="23.513" r="1.2" class="st2"/><circle id="svg_212" cx="130.53" cy="23.513" r="1.2" class="st2"/><circle id="svg_213" cx="154.93" cy="52.813" r="1.2" class="st2"/><circle id="svg_214" cx="157.33" cy="57.713" r="1.2" class="st2"/><circle id="svg_215" cx="120.73" cy="62.613" r="1.2" class="st2"/><circle id="svg_216" cx="125.63" cy="62.613" r="1.2" class="st2"/><circle id="svg_217" cx="130.53" cy="62.613" r="1.2" class="st2"/><circle id="svg_218" cx="135.43" cy="62.613" r="1.2" class="st2"/><circle id="svg_219" cx="140.23" cy="62.613" r="1.2" class="st2"/><circle id="svg_220" cx="145.13" cy="62.613" r="1.2" class="st2"/><circle id="svg_221" cx="150.03" cy="62.613" r="1.2" class="st2"/><circle id="svg_222" cx="118.33" cy="67.413" r="1.2" class="st2"/><circle id="svg_223" cx="123.23" cy="67.413" r="1.2" class="st2"/><circle id="svg_224" cx="128.03" cy="67.413" r="1.2" class="st2"/><circle id="svg_225" cx="132.93" cy="67.413" r="1.2" class="st2"/><circle id="svg_226" cx="137.83" cy="67.413" r="1.2" class="st2"/><circle id="svg_227" cx="142.73" cy="67.413" r="1.2" class="st2"/><circle id="svg_228" cx="147.63" cy="67.413" r="1.2" class="st2"/><circle id="svg_229" cx="152.43" cy="67.413" r="1.2" class="st2"/><circle id="svg_230" cx="120.73" cy="72.313" r="1.2" class="st2"/><circle id="svg_231" cx="125.63" cy="72.313" r="1.2" class="st2"/><circle id="svg_232" cx="130.53" cy="72.313" r="1.2" class="st2"/><circle id="svg_233" cx="135.43" cy="72.313" r="1.2" class="st2"/><circle id="svg_234" cx="140.23" cy="72.313" r="1.2" class="st2"/><circle id="svg_235" cx="145.13" cy="72.313" r="1.2" class="st2"/><circle id="svg_236" cx="150.03" cy="72.313" r="1.2" class="st2"/><circle id="svg_237" cx="118.33" cy="77.213" r="1.2" class="st2"/><circle id="svg_238" cx="123.23" cy="77.213" r="1.2" class="st2"/><circle id="svg_239" cx="128.03" cy="77.213" r="1.2" class="st2"/><circle id="svg_240" cx="132.93" cy="77.213" r="1.2" class="st2"/><circle id="svg_241" cx="137.83" cy="77.213" r="1.2" class="st2"/><circle id="svg_242" cx="142.73" cy="77.213" r="1.2" class="st2"/><circle id="svg_243" cx="147.63" cy="77.213" r="1.2" class="st2"/><circle id="svg_244" cx="152.43" cy="77.213" r="1.2" class="st2"/><circle id="svg_245" cx="120.73" cy="82.113" r="1.2" class="st2"/><circle id="svg_246" cx="125.63" cy="82.113" r="1.2" class="st2"/><circle id="svg_247" cx="130.53" cy="82.113" r="1.2" class="st2"/><circle id="svg_248" cx="135.43" cy="82.113" r="1.2" class="st2"/><circle id="svg_249" cx="140.23" cy="82.113" r="1.2" class="st2"/><circle id="svg_250" cx="145.13" cy="82.113" r="1.2" class="st2"/><circle id="svg_251" cx="150.03" cy="82.113" r="1.2" class="st2"/><circle id="svg_252" cx="118.33" cy="87.013" r="1.2" class="st2"/><circle id="svg_253" cx="123.23" cy="87.013" r="1.2" class="st2"/><circle id="svg_254" cx="128.03" cy="87.013" r="1.2" class="st2"/><circle id="svg_255" cx="132.93" cy="87.013" r="1.2" class="st2"/><circle id="svg_256" cx="137.83" cy="87.013" r="1.2" class="st2"/><circle id="svg_257" cx="142.73" cy="87.013" r="1.2" class="st2"/><circle id="svg_258" cx="147.63" cy="87.013" r="1.2" class="st2"/><circle id="svg_259" cx="152.43" cy="87.013" r="1.2" class="st2"/><circle id="svg_260" cx="154.93" cy="62.613" r="1.2" class="st2"/><circle id="svg_261" cx="159.83" cy="62.613" r="1.2" class="st2"/><circle id="svg_262" cx="157.33" cy="67.413" r="1.2" class="st2"/><circle id="svg_263" cx="154.93" cy="72.313" r="1.2" class="st2"/><circle id="svg_264" cx="159.83" cy="72.313" r="1.2" class="st2"/><circle id="svg_265" cx="157.33" cy="77.213" r="1.2" class="st2"/><circle id="svg_266" cx="162.23" cy="77.213" r="1.2" class="st2"/><circle id="svg_267" cx="154.93" cy="82.113" r="1.2" class="st2"/><circle id="svg_268" cx="159.83" cy="82.113" r="1.2" class="st2"/><circle id="svg_269" cx="157.33" cy="87.013" r="1.2" class="st2"/><circle id="svg_270" cx="162.23" cy="87.013" r="1.2" class="st2"/></g></g></g></g></g><g id="svg_271"><path id="svg_272" d="m85.130067,101.412927c-1.5,0 -2.7,-1.2 -2.7,-2.7l0,-1.8c0,-1.5 1.2,-2.7 2.7,-2.7l0.4,0l0,-20.1l-4.6,0l0,1.1c0,1.5 -1.2,2.7 -2.7,2.7l-1.2,0c-1.5,0 -2.7,-1.2 -2.7,-2.7l0,-5.1c0,-1.5 1.2,-2.7 2.7,-2.7l24.5,0c1.5,0 2.7,1.2 2.7,2.7l0,5.1c0,1.5 -1.2,2.7 -2.7,2.7l-1.2,0c-1.5,0 -2.7,-1.2 -2.7,-2.7l0,-1.1l-4.6,0l0,20.1l0.4,0c1.5,0 2.7,1.2 2.7,2.7l0,1.8c0,1.5 -1.2,2.7 -2.7,2.7l-8.3,0z" class="st3"/><path id="svg_273" d="m101.430067,68.812927c0.7,0 1.2,0.5 1.2,1.2l0,5.1c0,0.7 -0.5,1.2 -1.2,1.2l-1.2,0c-0.7,0 -1.2,-0.5 -1.2,-1.2l0,-1.4c0,-0.7 -0.5,-1.2 -1.2,-1.2l-5.2,0c-0.7,0 -1.2,0.5 -1.2,1.2l0,20.7c0,0.7 0.5,1.2 1.2,1.2l0.7,0c0.7,0 1.2,0.5 1.2,1.2l0,1.8c0,0.7 -0.5,1.2 -1.2,1.2l-8.2,0c-0.7,0 -1.2,-0.5 -1.2,-1.2l0,-1.8c0,-0.7 0.5,-1.2 1.2,-1.2l0.7,0c0.7,0 1.2,-0.5 1.2,-1.2l0,-20.7c0,-0.7 -0.5,-1.2 -1.2,-1.2l-5.2,0c-0.7,0 -1.2,0.5 -1.2,1.2l0,1.4c0,0.7 -0.5,1.2 -1.2,1.2l-1.2,0c-0.7,0 -1.2,-0.5 -1.2,-1.2l0,-5.1c0,-0.7 0.5,-1.2 1.2,-1.2l13.2,0c0.7,0 1.8,0 2.4,0l4.9,0c0.7,0 1.8,0 2.4,0l1.5,0m0,-3l-1.6,0l-2.4,0l-4.9,0l-2.4,0l-13.2,0c-2.3,0 -4.2,1.9 -4.2,4.2l0,5.1c0,2.3 1.9,4.2 4.2,4.2l1.2,0c2.2,0 4,-1.7 4.2,-3.8l1.6,0l0,17.2c-1.8,0.5 -3.1,2.1 -3.1,4.1l0,1.8c0,2.3 1.9,4.2 4.2,4.2l8.2,0c2.3,0 4.2,-1.9 4.2,-4.2l0,-1.8c0,-2 -1.3,-3.6 -3.1,-4.1l0,-17.2l1.6,0c0.2,2.1 2,3.8 4.2,3.8l1.2,0c2.3,0 4.2,-1.9 4.2,-4.2l0,-5.1c0.1,-2.3 -1.7,-4.2 -4.1,-4.2l0,0z" class="st4"/></g></g></g></svg>