<svg xmlns="http://www.w3.org/2000/svg" id="Layer_1" width="311" height="153" x="0" y="0" version="1.1" viewBox="0 0 311 153" style="enable-background:new 0 0 311.5 217.6"><style type="text/css">.st0{fill:#fafafa}.st1{fill:#f4f4f4}.st2{fill:none;stroke:#f0f0f1;stroke-width:2;stroke-miterlimit:10}.st3{fill:#fff399}.st4,.st5{fill:none;stroke:#666667;stroke-width:2.0014;stroke-linecap:round;stroke-linejoin:round;stroke-miterlimit:10}.st5{stroke:#404041;stroke-width:2.6686}.st6{fill:#ffe000}.st7{fill:#404041}.st8{fill:#b4cdf1}.st9{fill:#d1d1d1}.st10{fill:#ffabab}.st11{opacity:.4;fill:#ffe000}.st12{fill:#f1f1f1}.st13,.st14{fill:#44c57e}.st14,.st15{opacity:.3}.st16{fill:none;stroke:#666667;stroke-width:2;stroke-linecap:round;stroke-linejoin:round;stroke-miterlimit:10}</style><g transform="matrix(1, 0, 0, 1, 0, -40)"><g><path d="M245.6,137.2c0-51.8-42-93.9-93.9-93.9s-93.9,42-93.9,93.9c0,0.3,0,0.6,0,0.8h187.7 C245.6,137.8,245.6,137.5,245.6,137.2z" class="st0"/><path d="M228.6,191c10.5-15,16.7-33.3,16.9-52.9H57.8C58,157.7,64.2,176,74.8,191H228.6z" class="st1"/></g><line x1="12.9" x2="294.1" y1="191" y2="191" class="st2"/></g><path d="M 173.5 134.6 L 173.5 134.6 C 170 134.2 167.2 131.4 166.8 127.8 L 166.8 127.8 C 166.8 127.8 166.8 127.8 166.8 127.8 C 166.8 127.8 166.8 127.8 166.8 127.8 L 166.8 127.8 C 166.4 131.3 163.6 134.2 160.1 134.6 L 160.1 134.6 C 160.1 134.6 160.1 134.6 160.1 134.6 C 160.1 134.6 160.1 134.6 160.1 134.6 L 160.1 134.6 C 163.6 135 166.4 137.8 166.8 141.3 L 166.8 141.3 C 166.8 141.3 166.8 141.3 166.8 141.3 C 166.8 141.3 166.8 141.3 166.8 141.3 L 166.8 141.3 C 167.2 137.8 170 135 173.5 134.6 L 173.5 134.6 C 173.5 134.7 173.5 134.6 173.5 134.6 C 173.5 134.6 173.5 134.6 173.5 134.6 Z" class="st3"/><g transform="matrix(1, 0, 0, 1, 0, -40)"><line x1="97.4" x2="67.3" y1="175.4" y2="171.1" class="st4"/></g><g transform="matrix(1, 0, 0, 1, 0, -40)"><line x1="101.9" x2="82.9" y1="181.1" y2="180.4" class="st4"/></g><path d="M 199.2 120.1" class="st5"/><path d="M 199.2 120.1" class="st5"/><path d="M 199.2 120.1" class="st5"/><path d="M 199.2 120.1" class="st5"/><g transform="matrix(1, 0, 0, 1, 0, -40)"><g><path d="M145.5,169.9c-0.6,2.4-3,3.9-5.4,3.3l-23.7-5.9c0,0,0,0,0,0l8.6-34.4c0.6-2.4,1.6-6.3,2.2-8.7l2-8.1 c0,0,0,0,0,0l23.7,5.9c2.4,0.6,3.9,3,3.3,5.4L145.5,169.9z" class="st6"/></g><g><g><g><circle cx="142.9" cy="94.2" r=".7" class="st7"/><circle cx="145.5" cy="94.8" r=".7" class="st7"/><circle cx="148.1" cy="95.5" r=".7" class="st7"/><circle cx="150.7" cy="96.1" r=".7" class="st7"/><circle cx="142.3" cy="91.3" r=".7" class="st7"/><circle cx="144.9" cy="91.9" r=".7" class="st7"/><circle cx="147.4" cy="92.6" r=".7" class="st7"/><circle cx="150" cy="93.2" r=".7" class="st7"/><circle cx="141" cy="96.5" r=".7" class="st7"/><circle cx="143.6" cy="97.1" r=".7" class="st7"/><circle cx="146.1" cy="97.8" r=".7" class="st7"/><circle cx="148.7" cy="98.4" r=".7" class="st7"/><circle cx="151.3" cy="99.1" r=".7" class="st7"/><circle cx="141.6" cy="99.4" r=".7" class="st7"/><circle cx="144.2" cy="100" r=".7" class="st7"/><circle cx="146.8" cy="100.7" r=".7" class="st7"/><circle cx="149.4" cy="101.3" r=".7" class="st7"/><circle cx="139.7" cy="101.6" r=".7" class="st7"/><circle cx="142.3" cy="102.3" r=".7" class="st7"/><circle cx="144.8" cy="102.9" r=".7" class="st7"/><circle cx="147.4" cy="103.6" r=".7" class="st7"/><circle cx="150" cy="104.2" r=".7" class="st7"/><circle cx="140.3" cy="104.6" r=".7" class="st7"/><circle cx="142.9" cy="105.2" r=".7" class="st7"/><circle cx="145.5" cy="105.9" r=".7" class="st7"/><circle cx="148.1" cy="106.5" r=".7" class="st7"/><circle cx="138.4" cy="106.8" r=".7" class="st7"/><circle cx="141" cy="107.5" r=".7" class="st7"/><circle cx="143.5" cy="108.1" r=".7" class="st7"/><circle cx="146.1" cy="108.8" r=".7" class="st7"/><circle cx="148.7" cy="109.4" r=".7" class="st7"/><circle cx="139" cy="109.7" r=".7" class="st7"/><circle cx="141.6" cy="110.4" r=".7" class="st7"/><circle cx="144.2" cy="111" r=".7" class="st7"/><circle cx="146.8" cy="111.7" r=".7" class="st7"/><circle cx="137.1" cy="112" r=".7" class="st7"/><circle cx="139.7" cy="112.6" r=".7" class="st7"/><circle cx="142.2" cy="113.3" r=".7" class="st7"/><circle cx="144.8" cy="113.9" r=".7" class="st7"/><circle cx="147.4" cy="114.6" r=".7" class="st7"/><circle cx="137.7" cy="114.9" r=".7" class="st7"/><circle cx="140.3" cy="115.6" r=".7" class="st7"/><circle cx="142.9" cy="116.2" r=".7" class="st7"/><circle cx="145.5" cy="116.9" r=".7" class="st7"/><circle cx="135.8" cy="117.2" r=".7" class="st7"/><circle cx="138.4" cy="117.8" r=".7" class="st7"/><circle cx="140.9" cy="118.5" r=".7" class="st7"/><circle cx="143.5" cy="119.1" r=".7" class="st7"/><circle cx="146.1" cy="119.8" r=".7" class="st7"/><circle cx="136.4" cy="120.1" r=".7" class="st7"/><circle cx="139" cy="120.7" r=".7" class="st7"/><circle cx="141.6" cy="121.4" r=".7" class="st7"/><circle cx="144.2" cy="122" r=".7" class="st7"/></g></g><g><g><circle cx="141" cy="74.5" r=".7" class="st7"/><circle cx="143.6" cy="75.1" r=".7" class="st7"/><circle cx="139" cy="76.7" r=".7" class="st7"/><circle cx="141.6" cy="77.4" r=".7" class="st7"/><circle cx="144.2" cy="78" r=".7" class="st7"/><circle cx="139.7" cy="79.6" r=".7" class="st7"/><circle cx="142.3" cy="80.3" r=".7" class="st7"/><circle cx="144.9" cy="80.9" r=".7" class="st7"/><circle cx="147.4" cy="81.6" r=".7" class="st7"/><circle cx="137.7" cy="81.9" r=".7" class="st7"/><circle cx="140.3" cy="82.5" r=".7" class="st7"/><circle cx="142.9" cy="83.2" r=".7" class="st7"/><circle cx="145.5" cy="83.8" r=".7" class="st7"/><circle cx="148.1" cy="84.5" r=".7" class="st7"/><circle cx="141" cy="85.5" r=".7" class="st7"/><circle cx="143.6" cy="86.1" r=".7" class="st7"/><circle cx="146.2" cy="86.8" r=".7" class="st7"/><circle cx="148.7" cy="87.4" r=".7" class="st7"/><circle cx="141.6" cy="88.4" r=".7" class="st7"/><circle cx="144.2" cy="89" r=".7" class="st7"/><circle cx="146.8" cy="89.7" r=".7" class="st7"/><circle cx="149.4" cy="90.3" r=".7" class="st7"/><circle cx="142.3" cy="91.3" r=".7" class="st7"/><circle cx="144.9" cy="91.9" r=".7" class="st7"/><circle cx="147.4" cy="92.6" r=".7" class="st7"/><circle cx="150" cy="93.2" r=".7" class="st7"/><circle cx="142.9" cy="94.2" r=".7" class="st7"/><circle cx="145.5" cy="94.8" r=".7" class="st7"/><circle cx="148.1" cy="95.5" r=".7" class="st7"/><circle cx="150.7" cy="96.1" r=".7" class="st7"/></g></g></g><path d="M100.1,63.9L100.1,63.9c-4.6-0.5-8.3-4.2-8.8-8.8h0c0,0,0-0.1-0.1-0.1c0,0-0.1,0-0.1,0.1h0 c-0.5,4.6-4.2,8.3-8.8,8.8v0c0,0-0.1,0-0.1,0.1c0,0,0,0.1,0.1,0.1v0c4.6,0.5,8.3,4.2,8.8,8.8h0c0,0,0,0.1,0.1,0.1 c0,0,0.1,0,0.1-0.1h0c0.5-4.6,4.2-8.3,8.8-8.8v0C100.2,64,100.2,64,100.1,63.9C100.2,63.9,100.2,63.9,100.1,63.9z" class="st3"/><path d="M248.9,63.9L248.9,63.9c-2.4-0.3-4.2-2.2-4.5-4.5h0c0,0,0,0,0,0c0,0,0,0,0,0h0c-0.3,2.4-2.1,4.2-4.5,4.5v0 c0,0,0,0,0,0c0,0,0,0,0,0v0c2.4,0.3,4.2,2.1,4.5,4.5h0c0,0,0,0,0,0s0,0,0,0h0C244.7,66.2,246.6,64.3,248.9,63.9L248.9,63.9 C248.9,64,249,64,248.9,63.9C249,64,248.9,63.9,248.9,63.9z" class="st8"/><g><ellipse cx="253.1" cy="124.9" class="st9" rx="3" ry="3" transform="matrix(0.1515 -0.9885 0.9885 0.1515 91.3434 356.1393)"/></g><g><path d="M159.4,59.6c0.5-2.3-0.6-4.6-2.6-5.5c-1.6-0.7-3.3-0.3-4.5,0.7l0,0l0,0c-0.5-1.6-1.7-2.8-3.4-3.1 c-2.1-0.4-4.3,0.8-5.2,2.9c-0.7,1.5-0.6,3.1,0,4.4l0,0l3.1,6.7c0.7,1.5,2.4,2,3.8,1.2l6.1-3.6C158,62.6,159,61.3,159.4,59.6z" class="st10"/><path d="M154.8,62c-0.5-2.3,0.6-4.6,2.6-5.5c1.6-0.7,3.3-0.3,4.5,0.7l0,0l0,0c0.5-1.6,1.7-2.8,3.4-3.1 c2.1-0.4,4.3,0.8,5.2,2.9c0.7,1.5,0.6,3.1,0,4.4l0,0l-3.1,6.7c-0.7,1.5-2.4,2-3.8,1.2l-6.1-3.6C156.2,64.9,155.1,63.6,154.8,62z" class="st10"/></g><path d="M152.9,121.9l-67.9-17c-2.4-0.6-4.8,0.9-5.4,3.3l-0.9,3.7c-0.6,2.4-1.6,6.3-2.2,8.7l-7.6,30.1 c-0.6,2.4,0.9,4.8,3.3,5.4l67.9,17c2.4,0.6,4.8-0.9,5.4-3.3l10.7-42.6C156.8,125,155.3,122.5,152.9,121.9z M114.7,140.1l-2.1,8.2 l0,0c-0.3,1.4-1.7,2.2-3.1,1.9c-1.4-0.3-2.2-1.7-1.9-3.1l0,0l2.1-8.2c-1.4-1.3-1.9-3.2-1.5-5.1c0.7-2.8,3.5-4.5,6.3-3.8 c1.9,0.5,3.3,1.9,3.8,3.7C119.2,136.5,117.5,139.3,114.7,140.1z" class="st11"/><path d="M85.2,109.6L90.4,89c3.9-15.7,19.9-25.3,35.6-21.4l0,0" class="st5"/><path d="M142.1,123.8l5.2-20.6c3.9-15.7-5.6-31.7-21.4-35.6l0,0" class="st5"/><path d="M93.3,110.8L98.5,90c2.8-11.2,14.2-18.1,25.5-15.3l0,0" class="st5"/><path d="M134.4,121.2l5.2-20.8c2.8-11.2-4-22.6-15.3-25.5h0" class="st5"/><g><path d="M140.1,173.5c-0.6,2.4-3,3.9-5.4,3.3l-67.9-17c-2.4-0.6-3.9-3-3.3-5.4l7.6-30.1c0.6-2.4,1.6-6.3,2.2-8.7 l0.9-3.7c0.6-2.4,3-3.9,5.4-3.3l67.9,17c2.4,0.6,3.9,3,3.3,5.4L140.1,173.5z" class="st5"/></g><path d="M109.6,133.3c-2.6-0.6-5.2,0.9-5.9,3.5c-0.4,1.7,0.1,3.5,1.4,4.7l-1.9,7.6l0,0c-0.3,1.3,0.5,2.6,1.7,2.9 s2.6-0.5,2.9-1.7l0,0l1.9-7.6c2.6-0.7,4.1-3.4,3.4-5.9C112.7,135,111.3,133.7,109.6,133.3z" class="st5"/><path d="M199.3,138.4" class="st5"/><g><g id="icon-invoice_24_"><g><path d="M207.5,159.6l30.6-4.5c3.5-0.5,6-3.8,5.4-7.3l-1.8-12.6c0-0.1-0.1-0.2-0.2-0.2L166.7,146 c-0.1,0-0.2,0.1-0.2,0.2l1.8,12.6c0.5,3.5,3.8,6,7.3,5.4l12.9-1.9" class="st12"/></g></g><g><g><path d="M185.7,90c0.1,0.7-0.4,1.4-1.1,1.5l-4,0.6c-0.7,0.1-1.4-0.4-1.5-1.1l-0.6-4c-0.1-0.7,0.4-1.4,1.1-1.5l4-0.6 c0.7-0.1,1.4,0.4,1.5,1.1L185.7,90z" class="st7"/></g><g><path d="M187.8,104.2c0.1,0.7-0.4,1.4-1.1,1.5l-4,0.6c-0.7,0.1-1.4-0.4-1.5-1.1l-0.6-4c-0.1-0.7,0.4-1.4,1.1-1.5 l4-0.6c0.7-0.1,1.4,0.4,1.5,1.1L187.8,104.2z" class="st7"/></g><g><path d="M189.8,118.3c0.1,0.7-0.4,1.4-1.1,1.5l-4,0.6c-0.7,0.1-1.4-0.4-1.5-1.1l-0.6-4c-0.1-0.7,0.4-1.4,1.1-1.5 l4-0.6c0.7-0.1,1.4,0.4,1.5,1.1L189.8,118.3z" class="st7"/></g><g><path d="M191.9,132.5c0.1,0.7-0.4,1.4-1.1,1.5l-4,0.6c-0.7,0.1-1.4-0.4-1.5-1.1l-0.6-4c-0.1-0.7,0.4-1.4,1.1-1.5 l4-0.6c0.7-0.1,1.4,0.4,1.5,1.1L191.9,132.5z" class="st7"/></g><g id="icon-invoice_23_"><g><path d="M172.7,72.2l-5.5,0.8c-3.5,0.5-6,3.8-5.4,7.3l8.4,57.4l12-1.7L172.7,72.2z" class="st13"/></g></g><g id="icon-invoice_22_"><g><path d="M222,155.2c-0.2,0-0.3-0.1-0.4-0.3l-2.7-18.3c0-0.1,0.1-0.2,0.2-0.2l25.1-3.7c0.1,0,0.2,0.1,0.2,0.2 l1.8,12.3c0.5,3.4-1.9,6.6-5.5,7.2L222,155.2z" class="st14"/></g></g><g id="icon-invoice_21_" class="st15"><g><path d="M219.2,136.4c-0.2,0-0.3-0.1-0.4-0.3l-9.8-66.9c0-0.1,0.1-0.2,0.2-0.2l17.1-2.5c4.5-0.7,8.7,2.4,9.4,6.8 l8.7,59.3L219.2,136.4z" class="st13"/></g></g><polygon points="187.6 147.2 190.7 168.8 199.1 158.5 208.9 165.8 205.8 144.5" class="st13"/><g><circle cx="221.2" cy="131.3" r=".7" class="st7"/><circle cx="223.8" cy="130.9" r=".7" class="st7"/><circle cx="226.5" cy="130.5" r=".7" class="st7"/><circle cx="229.1" cy="130.1" r=".7" class="st7"/><circle cx="231.7" cy="129.7" r=".7" class="st7"/><circle cx="234.4" cy="129.3" r=".7" class="st7"/><circle cx="237" cy="128.9" r=".7" class="st7"/><circle cx="239.6" cy="128.5" r=".7" class="st7"/><circle cx="220.3" cy="134.1" r=".7" class="st7"/><circle cx="222.9" cy="133.7" r=".7" class="st7"/><circle cx="225.5" cy="133.3" r=".7" class="st7"/><circle cx="228.2" cy="132.9" r=".7" class="st7"/><circle cx="222" cy="136.6" r=".7" class="st7"/><circle cx="224.6" cy="136.2" r=".7" class="st7"/><circle cx="227.2" cy="135.8" r=".7" class="st7"/><circle cx="229.9" cy="135.4" r=".7" class="st7"/><circle cx="230.8" cy="132.5" r=".7" class="st7"/><circle cx="233.4" cy="132.1" r=".7" class="st7"/><circle cx="236.1" cy="131.7" r=".7" class="st7"/><circle cx="238.7" cy="131.3" r=".7" class="st7"/><circle cx="232.5" cy="135" r=".7" class="st7"/><circle cx="235.2" cy="134.6" r=".7" class="st7"/><circle cx="237.8" cy="134.2" r=".7" class="st7"/><circle cx="240.4" cy="133.8" r=".7" class="st7"/><circle cx="221" cy="139.3" r=".7" class="st7"/><circle cx="223.7" cy="139" r=".7" class="st7"/><circle cx="226.3" cy="138.6" r=".7" class="st7"/><circle cx="229" cy="138.2" r=".7" class="st7"/><circle cx="222.8" cy="141.8" r=".7" class="st7"/><circle cx="225.4" cy="141.4" r=".7" class="st7"/><circle cx="228" cy="141" r=".7" class="st7"/><circle cx="230.7" cy="140.6" r=".7" class="st7"/><circle cx="231.6" cy="137.8" r=".7" class="st7"/><circle cx="234.2" cy="137.4" r=".7" class="st7"/><circle cx="236.9" cy="137" r=".7" class="st7"/><circle cx="239.5" cy="136.6" r=".7" class="st7"/><circle cx="233.3" cy="140.2" r=".7" class="st7"/><circle cx="235.9" cy="139.8" r=".7" class="st7"/><circle cx="238.6" cy="139.4" r=".7" class="st7"/><circle cx="241.2" cy="139" r=".7" class="st7"/><circle cx="221.8" cy="144.6" r=".7" class="st7"/><circle cx="224.5" cy="144.2" r=".7" class="st7"/><circle cx="227.1" cy="143.8" r=".7" class="st7"/><circle cx="229.7" cy="143.4" r=".7" class="st7"/><circle cx="223.5" cy="147" r=".7" class="st7"/><circle cx="226.2" cy="146.6" r=".7" class="st7"/><circle cx="228.8" cy="146.2" r=".7" class="st7"/><circle cx="231.5" cy="145.8" r=".7" class="st7"/><circle cx="232.4" cy="143" r=".7" class="st7"/><circle cx="235" cy="142.6" r=".7" class="st7"/><circle cx="237.7" cy="142.2" r=".7" class="st7"/><circle cx="240.3" cy="141.8" r=".7" class="st7"/><circle cx="234.1" cy="145.4" r=".7" class="st7"/><circle cx="236.7" cy="145" r=".7" class="st7"/><circle cx="239.4" cy="144.6" r=".7" class="st7"/><circle cx="222.6" cy="149.8" r=".7" class="st7"/><circle cx="225.2" cy="149.4" r=".7" class="st7"/><circle cx="227.9" cy="149" r=".7" class="st7"/><circle cx="230.5" cy="148.6" r=".7" class="st7"/><circle cx="224.3" cy="152.3" r=".7" class="st7"/><circle cx="227" cy="151.9" r=".7" class="st7"/><circle cx="229.6" cy="151.5" r=".7" class="st7"/><circle cx="232.2" cy="151.1" r=".7" class="st7"/><circle cx="233.2" cy="148.2" r=".7" class="st7"/><circle cx="235.8" cy="147.8" r=".7" class="st7"/><circle cx="238.4" cy="147.4" r=".7" class="st7"/><circle cx="241.1" cy="147" r=".7" class="st7"/><circle cx="234.9" cy="150.7" r=".7" class="st7"/><circle cx="237.5" cy="150.3" r=".7" class="st7"/><circle cx="240.2" cy="149.9" r=".7" class="st7"/></g><path d="M207.5,159.6l30.6-4.5c3.5-0.5,6-3.8,5.4-7.3L233,75.2c-0.5-3.5-3.8-6-7.3-5.4l-62.4,9.1 c-3.5,0.5-6,3.8-5.4,7.3l10.6,72.6c0.5,3.5,3.8,6,7.3,5.4l12.9-1.9" class="st5"/><line x1="166.5" x2="241.7" y1="145.8" y2="134.8" class="st5"/><polygon points="187.5 152 190.7 173.7 199 163.4 208.8 170.7 205.7 149.4" class="st5"/></g><line x1="169.6" x2="179.2" y1="78.5" y2="144.1" class="st5"/></g><line x1="157.9" x2="159.7" y1="49.8" y2="42.9" class="st16"/><line x1="163.6" x2="166.2" y1="51.2" y2="48.4" class="st16"/><line x1="151.5" x2="150.5" y1="48.1" y2="44.4" class="st16"/></g><path d="M 67.1 128" class="st5"/><g><g transform="matrix(1, 0, 0, 1, 0, -40)"><line x1="215.2" x2="245.3" y1="168" y2="163.8" class="st4"/></g><g transform="matrix(1, 0, 0, 1, 0, -40)"><line x1="210.7" x2="229.7" y1="173.7" y2="173.1" class="st4"/></g></g></svg>