<svg xmlns="http://www.w3.org/2000/svg" width="325" height="347.945" viewBox="0 0 325 347.945"><defs><style type="text/css"/></defs><linearGradient id="b" x1="-529.603" x2="-680.407" y1="-3469.57" y2="-3649.291" gradientTransform="matrix(-.9891 .1474 .1474 .9891 88.7496 3840.4641)" gradientUnits="userSpaceOnUse"><stop offset="0" stop-color="#fff" stop-opacity="0"/><stop offset=".145" stop-color="#cfe2ff" stop-opacity=".145"/><stop offset=".381" stop-color="#86b7ff" stop-opacity=".381"/><stop offset=".594" stop-color="#4c95ff" stop-opacity=".594"/><stop offset=".774" stop-color="#237dff" stop-opacity=".774"/><stop offset=".915" stop-color="#096eff" stop-opacity=".915"/><stop offset="1" stop-color="#0068ff"/></linearGradient><circle cx="162.5" cy="230.654" r="117.291" fill="url(#b)"/><path fill="#e5e5e5" d="m7.147 5.721h142.941v213.187h-142.941z"/><path fill="#d8d8d8" d="m157.235 2c0-1.1-.9-2-2-2h-153.235c-1.1 0-2 .9-2 2v3.15c0 1.1.9 2 2 2h153.235c1.1 0 2-.9 2-2z"/><g fill="#fff"><path d="m41.095 45.379c0 1.1-.9 2-2 2h-17.441c-1.1 0-2-.9-2-2v-24.588c0-1.1.9-2 2-2h17.441c1.1 0 2 .9 2 2z"/><path d="m73.257 45.379c0 1.1-.9 2-2 2h-17.441c-1.1 0-2-.9-2-2v-24.588c0-1.1.9-2 2-2h17.441c1.1 0 2 .9 2 2z"/><path d="m105.419 45.379c0 1.1-.9 2-2 2h-17.441c-1.1 0-2-.9-2-2v-24.588c0-1.1.9-2 2-2h17.441c1.1 0 2 .9 2 2z"/><path d="m137.58 45.379c0 1.1-.9 2-2 2h-17.441c-1.1 0-2-.9-2-2v-24.588c0-1.1.9-2 2-2h17.441c1.1 0 2 .9 2 2z"/><path d="m41.095 85.045c0 1.1-.9 2-2 2h-17.441c-1.1 0-2-.9-2-2v-24.588c0-1.1.9-2 2-2h17.441c1.1 0 2 .9 2 2z"/><path d="m73.257 85.045c0 1.1-.9 2-2 2h-17.441c-1.1 0-2-.9-2-2v-24.588c0-1.1.9-2 2-2h17.441c1.1 0 2 .9 2 2z"/><path d="m105.419 85.045c0 1.1-.9 2-2 2h-17.441c-1.1 0-2-.9-2-2v-24.588c0-1.1.9-2 2-2h17.441c1.1 0 2 .9 2 2z"/><path d="m137.58 85.045c0 1.1-.9 2-2 2h-17.441c-1.1 0-2-.9-2-2v-24.588c0-1.1.9-2 2-2h17.441c1.1 0 2 .9 2 2z"/><path d="m41.095 124.711c0 1.1-.9 2-2 2h-17.441c-1.1 0-2-.9-2-2v-24.588c0-1.1.9-2 2-2h17.441c1.1 0 2 .9 2 2z"/><path d="m73.257 124.711c0 1.1-.9 2-2 2h-17.441c-1.1 0-2-.9-2-2v-24.588c0-1.1.9-2 2-2h17.441c1.1 0 2 .9 2 2z"/><path d="m105.419 124.711c0 1.1-.9 2-2 2h-17.441c-1.1 0-2-.9-2-2v-24.588c0-1.1.9-2 2-2h17.441c1.1 0 2 .9 2 2z"/><path d="m137.58 124.711c0 1.1-.9 2-2 2h-17.441c-1.1 0-2-.9-2-2v-24.588c0-1.1.9-2 2-2h17.441c1.1 0 2 .9 2 2z"/><path d="m41.095 164.377c0 1.1-.9 2-2 2h-17.441c-1.1 0-2-.9-2-2v-24.588c0-1.1.9-2 2-2h17.441c1.1 0 2 .9 2 2z"/><path d="m73.257 164.377c0 1.1-.9 2-2 2h-17.441c-1.1 0-2-.9-2-2v-24.588c0-1.1.9-2 2-2h17.441c1.1 0 2 .9 2 2z"/><path d="m105.419 164.377c0 1.1-.9 2-2 2h-17.441c-1.1 0-2-.9-2-2v-24.588c0-1.1.9-2 2-2h17.441c1.1 0 2 .9 2 2z"/><path d="m137.58 164.377c0 1.1-.9 2-2 2h-17.441c-1.1 0-2-.9-2-2v-24.588c0-1.1.9-2 2-2h17.441c1.1 0 2 .9 2 2z"/><path d="m71.105 177.455h-16.94c-1.297 0-2.349 1.052-2.349 2.349v39.104h21.638v-39.104c0-1.297-1.052-2.349-2.349-2.349z"/><path d="m83.879 179.804v39.104h21.54v-39.104c0-1.297-1.052-2.349-2.349-2.349h-16.842c-1.298 0-2.349 1.052-2.349 2.349z"/></g><path fill="#333" d="m106.359 97.408h207.918v140.154h-207.918z"/><path fill="#525b6d" d="m325 289.672c0 2.2-1.8 4-4 4h-220.431c-2.2 0-4-1.8-4-4v-50.739c0-2.2 1.8-4 4-4h220.431c2.2 0 4 1.8 4 4z"/><path fill="#7f8ba5" d="m134.306 255c0 .55-.45 1-1 1h-22.242c-.55 0-1-.45-1-1v-5.548c0-.55.45-1 1-1h22.242c.55 0 1 .45 1 1z"/><path fill="#7f8ba5" d="m134.306 279.153c0 .55-.45 1-1 1h-22.242c-.55 0-1-.45-1-1v-5.548c0-.55.45-1 1-1h22.242c.55 0 1 .45 1 1z"/><path fill="#7f8ba5" d="m134.306 267.076c0 .55-.45 1-1 1h-22.242c-.55 0-1-.45-1-1v-5.548c0-.55.45-1 1-1h22.242c.55 0 1 .45 1 1z"/><path fill="#7f8ba5" d="m164.142 255c0 .55-.45 1-1 1h-22.242c-.55 0-1-.45-1-1v-5.548c0-.55.45-1 1-1h22.242c.55 0 1 .45 1 1z"/><path fill="#7f8ba5" d="m164.142 279.153c0 .55-.45 1-1 1h-22.242c-.55 0-1-.45-1-1v-5.548c0-.55.45-1 1-1h22.242c.55 0 1 .45 1 1z"/><path fill="#7f8ba5" d="m164.142 267.076c0 .55-.45 1-1 1h-22.242c-.55 0-1-.45-1-1v-5.548c0-.55.45-1 1-1h22.242c.55 0 1 .45 1 1z"/><path fill="#7f8ba5" d="m193.978 255c0 .55-.45 1-1 1h-22.242c-.55 0-1-.45-1-1v-5.548c0-.55.45-1 1-1h22.242c.55 0 1 .45 1 1z"/><path fill="#7f8ba5" d="m193.978 279.153c0 .55-.45 1-1 1h-22.242c-.55 0-1-.45-1-1v-5.548c0-.55.45-1 1-1h22.242c.55 0 1 .45 1 1z"/><path fill="#7f8ba5" d="m193.978 267.076c0 .55-.45 1-1 1h-22.242c-.55 0-1-.45-1-1v-5.548c0-.55.45-1 1-1h22.242c.55 0 1 .45 1 1z"/><path fill="#7f8ba5" d="m222.881 255c0 .55-.45 1-1 1h-22.242c-.55 0-1-.45-1-1v-5.548c0-.55.45-1 1-1h22.242c.55 0 1 .45 1 1z"/><path fill="#7f8ba5" d="m222.881 279.153c0 .55-.45 1-1 1h-22.242c-.55 0-1-.45-1-1v-5.548c0-.55.45-1 1-1h22.242c.55 0 1 .45 1 1z"/><path fill="#7f8ba5" d="m222.881 267.076c0 .55-.45 1-1 1h-22.242c-.55 0-1-.45-1-1v-5.548c0-.55.45-1 1-1h22.242c.55 0 1 .45 1 1z"/><path fill="#7f8ba5" d="m251.785 255c0 .55-.45 1-1 1h-22.242c-.55 0-1-.45-1-1v-5.548c0-.55.45-1 1-1h22.242c.55 0 1 .45 1 1z"/><path fill="#7f8ba5" d="m251.785 279.153c0 .55-.45 1-1 1h-22.242c-.55 0-1-.45-1-1v-5.548c0-.55.45-1 1-1h22.242c.55 0 1 .45 1 1z"/><path fill="#7f8ba5" d="m251.785 267.076c0 .55-.45 1-1 1h-22.242c-.55 0-1-.45-1-1v-5.548c0-.55.45-1 1-1h22.242c.55 0 1 .45 1 1z"/><circle cx="304.93" cy="255" r="6.527" fill="#ff5050"/><circle cx="304.93" cy="273.647" r="6.527" fill="#ffabab"/><circle cx="285.35" cy="255" r="6.527" fill="#66beff"/><circle cx="285.35" cy="273.647" r="6.527" fill="#fff"/><path fill="#525b6d" d="m325 224.406c0 2.2-1.8 4-4 4h-220.431c-2.2 0-4-1.8-4-4v-50.739c0-2.2 1.8-4 4-4h220.431c2.2 0 4 1.8 4 4z"/><path fill="#7f8ba5" d="m134.306 189.734c0 .55-.45 1-1 1h-22.242c-.55 0-1-.45-1-1v-5.548c0-.55.45-1 1-1h22.242c.55 0 1 .45 1 1z"/><path fill="#7f8ba5" d="m134.306 213.887c0 .55-.45 1-1 1h-22.242c-.55 0-1-.45-1-1v-5.548c0-.55.45-1 1-1h22.242c.55 0 1 .45 1 1z"/><path fill="#7f8ba5" d="m134.306 201.81c0 .55-.45 1-1 1h-22.242c-.55 0-1-.45-1-1v-5.548c0-.55.45-1 1-1h22.242c.55 0 1 .45 1 1z"/><path fill="#7f8ba5" d="m164.142 189.734c0 .55-.45 1-1 1h-22.242c-.55 0-1-.45-1-1v-5.548c0-.55.45-1 1-1h22.242c.55 0 1 .45 1 1z"/><path fill="#7f8ba5" d="m164.142 213.887c0 .55-.45 1-1 1h-22.242c-.55 0-1-.45-1-1v-5.548c0-.55.45-1 1-1h22.242c.55 0 1 .45 1 1z"/><path fill="#7f8ba5" d="m164.142 201.81c0 .55-.45 1-1 1h-22.242c-.55 0-1-.45-1-1v-5.548c0-.55.45-1 1-1h22.242c.55 0 1 .45 1 1z"/><path fill="#7f8ba5" d="m193.978 189.734c0 .55-.45 1-1 1h-22.242c-.55 0-1-.45-1-1v-5.548c0-.55.45-1 1-1h22.242c.55 0 1 .45 1 1z"/><path fill="#7f8ba5" d="m193.978 213.887c0 .55-.45 1-1 1h-22.242c-.55 0-1-.45-1-1v-5.548c0-.55.45-1 1-1h22.242c.55 0 1 .45 1 1z"/><path fill="#7f8ba5" d="m193.978 201.81c0 .55-.45 1-1 1h-22.242c-.55 0-1-.45-1-1v-5.548c0-.55.45-1 1-1h22.242c.55 0 1 .45 1 1z"/><path fill="#7f8ba5" d="m222.881 189.734c0 .55-.45 1-1 1h-22.242c-.55 0-1-.45-1-1v-5.548c0-.55.45-1 1-1h22.242c.55 0 1 .45 1 1z"/><path fill="#7f8ba5" d="m222.881 213.887c0 .55-.45 1-1 1h-22.242c-.55 0-1-.45-1-1v-5.548c0-.55.45-1 1-1h22.242c.55 0 1 .45 1 1z"/><path fill="#7f8ba5" d="m222.881 201.81c0 .55-.45 1-1 1h-22.242c-.55 0-1-.45-1-1v-5.548c0-.55.45-1 1-1h22.242c.55 0 1 .45 1 1z"/><path fill="#7f8ba5" d="m251.785 189.734c0 .55-.45 1-1 1h-22.242c-.55 0-1-.45-1-1v-5.548c0-.55.45-1 1-1h22.242c.55 0 1 .45 1 1z"/><path fill="#7f8ba5" d="m251.785 213.887c0 .55-.45 1-1 1h-22.242c-.55 0-1-.45-1-1v-5.548c0-.55.45-1 1-1h22.242c.55 0 1 .45 1 1z"/><path fill="#7f8ba5" d="m251.785 201.81c0 .55-.45 1-1 1h-22.242c-.55 0-1-.45-1-1v-5.548c0-.55.45-1 1-1h22.242c.55 0 1 .45 1 1z"/><circle cx="304.93" cy="189.734" r="6.527" fill="#ff5050"/><circle cx="304.93" cy="208.381" r="6.527" fill="#ffabab"/><circle cx="285.35" cy="189.734" r="6.527" fill="#66beff"/><circle cx="285.35" cy="208.381" r="6.527" fill="#fff"/><path fill="#525b6d" d="m325 159.14c0 2.2-1.8 4-4 4h-220.431c-2.2 0-4-1.8-4-4v-50.739c0-2.2 1.8-4 4-4h220.431c2.2 0 4 1.8 4 4z"/><path fill="#7f8ba5" d="m134.306 124.468c0 .55-.45 1-1 1h-22.242c-.55 0-1-.45-1-1v-5.548c0-.55.45-1 1-1h22.242c.55 0 1 .45 1 1z"/><path fill="#7f8ba5" d="m134.306 148.621c0 .55-.45 1-1 1h-22.242c-.55 0-1-.45-1-1v-5.548c0-.55.45-1 1-1h22.242c.55 0 1 .45 1 1z"/><path fill="#7f8ba5" d="m134.306 136.544c0 .55-.45 1-1 1h-22.242c-.55 0-1-.45-1-1v-5.548c0-.55.45-1 1-1h22.242c.55 0 1 .45 1 1z"/><path fill="#7f8ba5" d="m164.142 124.468c0 .55-.45 1-1 1h-22.242c-.55 0-1-.45-1-1v-5.548c0-.55.45-1 1-1h22.242c.55 0 1 .45 1 1z"/><path fill="#7f8ba5" d="m164.142 148.621c0 .55-.45 1-1 1h-22.242c-.55 0-1-.45-1-1v-5.548c0-.55.45-1 1-1h22.242c.55 0 1 .45 1 1z"/><path fill="#7f8ba5" d="m164.142 136.544c0 .55-.45 1-1 1h-22.242c-.55 0-1-.45-1-1v-5.548c0-.55.45-1 1-1h22.242c.55 0 1 .45 1 1z"/><path fill="#7f8ba5" d="m193.978 124.468c0 .55-.45 1-1 1h-22.242c-.55 0-1-.45-1-1v-5.548c0-.55.45-1 1-1h22.242c.55 0 1 .45 1 1z"/><path fill="#7f8ba5" d="m193.978 148.621c0 .55-.45 1-1 1h-22.242c-.55 0-1-.45-1-1v-5.548c0-.55.45-1 1-1h22.242c.55 0 1 .45 1 1z"/><path fill="#7f8ba5" d="m193.978 136.544c0 .55-.45 1-1 1h-22.242c-.55 0-1-.45-1-1v-5.548c0-.55.45-1 1-1h22.242c.55 0 1 .45 1 1z"/><path fill="#7f8ba5" d="m222.881 124.468c0 .55-.45 1-1 1h-22.242c-.55 0-1-.45-1-1v-5.548c0-.55.45-1 1-1h22.242c.55 0 1 .45 1 1z"/><path fill="#7f8ba5" d="m222.881 148.621c0 .55-.45 1-1 1h-22.242c-.55 0-1-.45-1-1v-5.548c0-.55.45-1 1-1h22.242c.55 0 1 .45 1 1z"/><path fill="#7f8ba5" d="m222.881 136.544c0 .55-.45 1-1 1h-22.242c-.55 0-1-.45-1-1v-5.548c0-.55.45-1 1-1h22.242c.55 0 1 .45 1 1z"/><path fill="#7f8ba5" d="m251.785 124.468c0 .55-.45 1-1 1h-22.242c-.55 0-1-.45-1-1v-5.548c0-.55.45-1 1-1h22.242c.55 0 1 .45 1 1z"/><path fill="#7f8ba5" d="m251.785 148.621c0 .55-.45 1-1 1h-22.242c-.55 0-1-.45-1-1v-5.548c0-.55.45-1 1-1h22.242c.55 0 1 .45 1 1z"/><path fill="#7f8ba5" d="m251.785 136.544c0 .55-.45 1-1 1h-22.242c-.55 0-1-.45-1-1v-5.548c0-.55.45-1 1-1h22.242c.55 0 1 .45 1 1z"/><circle cx="304.93" cy="124.468" r="6.527" fill="#ff5050"/><circle cx="304.93" cy="143.115" r="6.527" fill="#ffabab"/><circle cx="285.35" cy="124.468" r="6.527" fill="#66beff"/><circle cx="285.35" cy="143.115" r="6.527" fill="#fff"/><path fill="#525b6d" d="m325 93.874c0 2.2-1.8 4-4 4h-220.431c-2.2 0-4-1.8-4-4v-50.739c0-2.2 1.8-4 4-4h220.431c2.2 0 4 1.8 4 4z"/><path fill="#7f8ba5" d="m134.306 59.202c0 .55-.45 1-1 1h-22.242c-.55 0-1-.45-1-1v-5.548c0-.55.45-1 1-1h22.242c.55 0 1 .45 1 1z"/><path fill="#7f8ba5" d="m134.306 83.355c0 .55-.45 1-1 1h-22.242c-.55 0-1-.45-1-1v-5.548c0-.55.45-1 1-1h22.242c.55 0 1 .45 1 1z"/><path fill="#7f8ba5" d="m134.306 71.278c0 .55-.45 1-1 1h-22.242c-.55 0-1-.45-1-1v-5.548c0-.55.45-1 1-1h22.242c.55 0 1 .45 1 1z"/><path fill="#7f8ba5" d="m164.142 59.202c0 .55-.45 1-1 1h-22.242c-.55 0-1-.45-1-1v-5.548c0-.55.45-1 1-1h22.242c.55 0 1 .45 1 1z"/><path fill="#7f8ba5" d="m164.142 83.355c0 .55-.45 1-1 1h-22.242c-.55 0-1-.45-1-1v-5.548c0-.55.45-1 1-1h22.242c.55 0 1 .45 1 1z"/><path fill="#7f8ba5" d="m164.142 71.278c0 .55-.45 1-1 1h-22.242c-.55 0-1-.45-1-1v-5.548c0-.55.45-1 1-1h22.242c.55 0 1 .45 1 1z"/><path fill="#7f8ba5" d="m193.978 59.202c0 .55-.45 1-1 1h-22.242c-.55 0-1-.45-1-1v-5.548c0-.55.45-1 1-1h22.242c.55 0 1 .45 1 1z"/><path fill="#7f8ba5" d="m193.978 83.355c0 .55-.45 1-1 1h-22.242c-.55 0-1-.45-1-1v-5.548c0-.55.45-1 1-1h22.242c.55 0 1 .45 1 1z"/><path fill="#7f8ba5" d="m193.978 71.278c0 .55-.45 1-1 1h-22.242c-.55 0-1-.45-1-1v-5.548c0-.55.45-1 1-1h22.242c.55 0 1 .45 1 1z"/><path fill="#7f8ba5" d="m222.881 59.202c0 .55-.45 1-1 1h-22.242c-.55 0-1-.45-1-1v-5.548c0-.55.45-1 1-1h22.242c.55 0 1 .45 1 1z"/><path fill="#7f8ba5" d="m222.881 83.355c0 .55-.45 1-1 1h-22.242c-.55 0-1-.45-1-1v-5.548c0-.55.45-1 1-1h22.242c.55 0 1 .45 1 1z"/><path fill="#7f8ba5" d="m222.881 71.278c0 .55-.45 1-1 1h-22.242c-.55 0-1-.45-1-1v-5.548c0-.55.45-1 1-1h22.242c.55 0 1 .45 1 1z"/><path fill="#7f8ba5" d="m251.785 59.202c0 .55-.45 1-1 1h-22.242c-.55 0-1-.45-1-1v-5.548c0-.55.45-1 1-1h22.242c.55 0 1 .45 1 1z"/><path fill="#7f8ba5" d="m251.785 83.355c0 .55-.45 1-1 1h-22.242c-.55 0-1-.45-1-1v-5.548c0-.55.45-1 1-1h22.242c.55 0 1 .45 1 1z"/><path fill="#7f8ba5" d="m251.785 71.278c0 .55-.45 1-1 1h-22.242c-.55 0-1-.45-1-1v-5.548c0-.55.45-1 1-1h22.242c.55 0 1 .45 1 1z"/><circle cx="304.93" cy="59.202" r="6.527" fill="#ff5050"/><circle cx="304.93" cy="77.849" r="6.527" fill="#ffabab"/><circle cx="285.35" cy="59.202" r="6.527" fill="#66beff"/><circle cx="285.35" cy="77.849" r="6.527" fill="#fff"/></svg>