<svg xmlns="http://www.w3.org/2000/svg" xmlns:xlink="http://www.w3.org/1999/xlink" id="Layer_1" x="0" y="0" version="1.1" viewBox="0 0 30.8 23" xml:space="preserve" style="enable-background:new 0 0 30.8 23"><style type="text/css">.st0{fill:#db4545}</style><g><path d="M16.5,11.5l5-5c0.3-0.3,0.3-0.8,0-1.1s-0.8-0.3-1.1,0l-5,5l-5-5c-0.3-0.3-0.8-0.3-1.1,0s-0.3,0.8,0,1.1l5,5 l-5,5c-0.3,0.3-0.3,0.8,0,1.1c0.2,0.2,0.4,0.2,0.6,0.2s0.4-0.1,0.6-0.2l5-5l5,5c0.2,0.2,0.4,0.2,0.6,0.2s0.4-0.1,0.6-0.2 c0.3-0.3,0.3-0.8,0-1.1L16.5,11.5z" class="st0"/></g></svg>