<svg xmlns="http://www.w3.org/2000/svg" xmlns:xlink="http://www.w3.org/1999/xlink" id="Layer_1" x="0" y="0" version="1.1" viewBox="0 0 30.8 23" xml:space="preserve" style="enable-background:new 0 0 30.8 23"><style type="text/css">.st0{fill:#db4545}</style><g><g><path d="M19.7,17.3c-0.3,0-0.6-0.1-0.9-0.4L9.9,7.8c-0.5-0.5-0.5-1.3,0-1.8s1.3-0.5,1.8,0l8.9,9.1 c0.5,0.5,0.5,1.3,0,1.8C20.3,17.2,20,17.3,19.7,17.3z" class="st0"/><path d="M11.1,17.3c-0.3,0-0.6-0.1-0.9-0.4c-0.5-0.5-0.5-1.3,0-1.8l8.9-9.1c0.5-0.5,1.3-0.5,1.8,0 c0.5,0.5,0.5,1.3,0,1.8L12,17C11.8,17.2,11.4,17.3,11.1,17.3z" class="st0"/></g></g></svg>