<svg xmlns="http://www.w3.org/2000/svg" xmlns:xlink="http://www.w3.org/1999/xlink" id="Layer_1" width="20" height="18.666" x="0" y="0" enable-background="new -.001 0 20 18.666" version="1.1" viewBox="-0.001 0 20 18.666" xml:space="preserve"><path fill="#3CA85B" d="M19.864,3.064c0.258-0.408,0.135-0.969-0.265-1.231l-2.576-1.696c-0.402-0.26-0.945-0.141-1.208,0.271	L8.417,12.285c-0.26,0.414-0.801,0.534-1.206,0.269L3.005,9.77c-0.399-0.261-0.946-0.143-1.202,0.271L0.14,12.707	c-0.264,0.412-0.146,0.976,0.254,1.238l6.59,4.389c0.406,0.271,1.118,0.401,1.59,0.295l0.989-0.221	c0.467-0.098,1.065-0.523,1.316-0.94L19.864,3.064z"/></svg>