<svg xmlns="http://www.w3.org/2000/svg" xmlns:xlink="http://www.w3.org/1999/xlink" id="Layer_1" x="0" y="0" version="1.1" viewBox="0 0 61.2 61.9" xml:space="preserve" style="enable-background:new 0 0 61.2 61.9"><style type="text/css">.st0{opacity:.8}.st1{fill:#dc342e}</style><g id="HmxsTF_2_" class="st0"><g><path d="M22.4,57.3c0-2.6,0-5.2,0-7.8c0-1,0.4-1.5,1.4-1.6c3.8-0.5,7.6-1,11.4-1.6c3-0.5,6.1-1,9-2 c0.9-0.3,1.8-0.8,2.6-1.7c0,0.8,0,1.4,0,2c0,2.1,0,4.2,0,6.4c0,0.9-0.3,1.4-1.1,1.8c-1.6,1-3.5,1.4-5.3,1.8 c-4.7,1-9.4,1.6-14.1,2.2c-1,0.1-2,0.1-3,0.5C23.1,57.3,22.8,57.3,22.4,57.3z" class="st1"/><path d="M46.8,18.4c0,3.2,0,6.1,0,9c0,0.6-0.4,0.9-0.9,1.2c-1.3,0.8-2.7,1.2-4.2,1.6c-4.9,1.2-10,1.8-15,2.5 c-1.1,0.2-2.2,0.3-3.3,0.5c-0.6,0.1-0.9-0.1-0.9-0.7c0-2.5,0-5,0-7.5c0-1,0.8-1,1.4-1.1c2.5-0.4,5-0.7,7.5-1 c4.3-0.6,8.5-1.1,12.6-2.5C45,19.9,45.9,19.5,46.8,18.4z" class="st1"/><path d="M46.8,30.5c0,3.1,0,6,0,8.9c0,0.7-0.5,1-1,1.3c-1.4,0.9-3,1.3-4.6,1.6c-5,1.2-10.2,1.7-15.3,2.5 c-0.9,0.1-1.7,0.3-2.6,0.4c-0.5,0.1-0.8,0-0.8-0.6c0-2.6,0-5.2,0-7.7c0-0.8,0.6-0.9,1.2-1c3.3-0.5,6.5-0.9,9.8-1.4 c3.2-0.5,6.4-1,9.5-1.9C44.3,32.2,45.6,31.7,46.8,30.5z" class="st1"/></g></g></svg>