<svg xmlns="http://www.w3.org/2000/svg" xmlns:xlink="http://www.w3.org/1999/xlink" id="Layer_1" x="0" y="0" version="1.1" viewBox="0 0 61.2 50.4" xml:space="preserve" style="enable-background:new 0 0 61.2 50.4"><style type="text/css">.st0{opacity:.8}.st1{fill:#eb1d26}</style><g class="st0"><polygon points="36.7 21.1 22.2 21.1 29.4 40.8" class="st1"/><polygon points="20.6 16.9 27.4 9.5 13.1 9.5 20.5 16.9" class="st1"/><polygon points="17.7 18.3 10.8 11.3 6.6 18.3" class="st1"/><polygon points="29.3 11.8 23.2 18.3 35.8 18.3" class="st1"/><polygon points="38.7 17 46.1 9.6 31.2 9.6 38.6 17" class="st1"/><polygon points="40.7 21.1 40.6 21.1 32.6 40.1 32.8 40.1 52 21.1" class="st1"/><polygon points="18.7 21.2 18.7 21.1 6.6 21.1 26.2 40.2 26.6 40.2" class="st1"/><polygon points="41.6 18.3 52 18.3 48.4 11.5" class="st1"/></g></svg>