<svg xmlns="http://www.w3.org/2000/svg" xmlns:xlink="http://www.w3.org/1999/xlink" id="Layer_1" x="0" y="0" version="1.1" viewBox="0 0 93 148.8" xml:space="preserve" style="enable-background:new 0 0 93 148.8"><style type="text/css">.st0{fill:url(#SVGID_1_)}.st1{fill:url(#SVGID_2_)}.st2{fill:url(#SVGID_3_)}.st3{fill:url(#SVGID_4_)}</style><title>oss-num</title><g id="oss-num-5"><g id="oss-5"><linearGradient id="SVGID_1_" x1="46.5" x2="46.5" y1="151.425" y2="80.805" gradientTransform="matrix(1 0 0 -1 0 151.4252)" gradientUnits="userSpaceOnUse"><stop offset="0" style="stop-color:#61bb78"/><stop offset=".541" style="stop-color:#5fba76"/><stop offset=".735" style="stop-color:#58b771"/><stop offset=".874" style="stop-color:#4db267"/><stop offset=".985" style="stop-color:#3cab58"/><stop offset="1" style="stop-color:#39aa56"/></linearGradient><path d="M93,8c0-4.4-3.6-8-8-8H8C3.6,0,0,3.6,0,8v62.6h93V8z" class="st0"/><linearGradient id="SVGID_2_" x1="46.499" x2="46.499" y1="2.627" y2="75.243" gradientTransform="matrix(1 0 0 -1 0 151.4252)" gradientUnits="userSpaceOnUse"><stop offset="0" style="stop-color:#88cc9a"/><stop offset=".465" style="stop-color:#86ca98"/><stop offset=".717" style="stop-color:#7ec490"/><stop offset=".918" style="stop-color:#70b982"/><stop offset="1" style="stop-color:#68b37a"/></linearGradient><path d="M0,140.8c0,4.4,3.6,8,8,8H85c4.4,0,8-3.6,8-8V76.2H0V140.8z" class="st1"/><linearGradient id="SVGID_3_" x1="45.666" x2="45.666" y1="122.365" y2="80.805" gradientTransform="matrix(1 0 0 -1 0 151.4252)" gradientUnits="userSpaceOnUse"><stop offset="0" style="stop-color:#f0f0f0"/><stop offset=".533" style="stop-color:#eee"/><stop offset=".823" style="stop-color:#e6e6e6"/><stop offset="1" style="stop-color:#dcdcdc"/></linearGradient><path d="M68.3,67c-2.7-2.8-5.9-5-9.5-6.4c-4-1.6-8.2-2.4-12.5-2.3c-3.6,0-7.2,0.7-10.5,2.2c-3.3,1.3-6.2,3.5-8.5,6.2 l-0.3-0.3l5.8-29.8h39.4v-7.4H27l-7.8,41.6h10.5c1.3-1.1,2.6-2,4.1-2.8c3.5-1.8,7.5-2.8,11.4-2.8c3.2,0,6.3,0.6,9.3,1.8 c2.2,0.9,4.2,2.2,6,3.7h10.6C70.3,69.3,69.3,68.1,68.3,67z" class="st2"/><linearGradient id="SVGID_4_" x1="46.023" x2="46.023" y1="31.686" y2="75.243" gradientTransform="matrix(1 0 0 -1 0 151.4252)" gradientUnits="userSpaceOnUse"><stop offset="0" style="stop-color:#fff"/><stop offset=".57" style="stop-color:#fdfdfd"/><stop offset=".879" style="stop-color:#f5f5f5"/><stop offset="1" style="stop-color:#efefef"/></linearGradient><path d="M66.6,79.2c1.2,2.9,1.8,6.1,1.7,9.3c0,3.2-0.5,6.3-1.5,9.3c-1,2.9-2.5,5.5-4.5,7.8c-2,2.3-4.4,4.1-7.1,5.4 c-2.9,1.4-6.1,2.1-9.4,2c-2.9,0-5.9-0.5-8.6-1.5c-5.2-1.9-9.4-5.8-11.6-10.9c-1.2-2.7-1.8-5.6-1.9-8.5h-8.1c0,4,0.9,7.9,2.4,11.6 c1.4,3.3,3.6,6.3,6.2,8.7c2.7,2.4,5.8,4.2,9.3,5.4c3.7,1.3,7.7,1.9,11.6,1.9c4.2,0,8.3-0.7,12.2-2.3c3.7-1.4,7.1-3.6,10-6.3 c2.9-2.7,5.1-6,6.7-9.6c1.7-3.8,2.5-8,2.4-12.2c0-4.3-0.7-8.5-2.1-12.5c-0.1-0.2-0.2-0.4-0.3-0.7h-9 C65.7,77.2,66.2,78.2,66.6,79.2z" class="st3"/></g></g></svg>