<svg xmlns="http://www.w3.org/2000/svg" xmlns:xlink="http://www.w3.org/1999/xlink" id="Layer_1" x="0" y="0" version="1.1" viewBox="0 0 93 148.8" xml:space="preserve" style="enable-background:new 0 0 93 148.8"><style type="text/css">.st0{fill:url(#SVGID_1_)}.st1{fill:url(#SVGID_2_)}.st2{fill:url(#SVGID_3_)}.st3{fill:url(#SVGID_4_)}</style><title>oss-num</title><g id="oss-num-7"><g id="oss-7"><linearGradient id="SVGID_1_" x1="46.5" x2="46.5" y1="151.425" y2="80.805" gradientTransform="matrix(1 0 0 -1 0 151.4252)" gradientUnits="userSpaceOnUse"><stop offset="0" style="stop-color:#61bb78"/><stop offset=".541" style="stop-color:#5fba76"/><stop offset=".735" style="stop-color:#58b771"/><stop offset=".874" style="stop-color:#4db267"/><stop offset=".985" style="stop-color:#3cab58"/><stop offset="1" style="stop-color:#39aa56"/></linearGradient><path d="M93,8c0-4.4-3.6-8-8-8H8C3.6,0,0,3.6,0,8v62.6h93V8z" class="st0"/><linearGradient id="SVGID_2_" x1="46.499" x2="46.499" y1="2.627" y2="75.243" gradientTransform="matrix(1 0 0 -1 0 151.4252)" gradientUnits="userSpaceOnUse"><stop offset="0" style="stop-color:#88cc9a"/><stop offset=".465" style="stop-color:#86ca98"/><stop offset=".717" style="stop-color:#7ec490"/><stop offset=".918" style="stop-color:#70b982"/><stop offset="1" style="stop-color:#68b37a"/></linearGradient><path d="M0,140.8c0,4.4,3.6,8,8,8H85c4.4,0,8-3.6,8-8V76.2H0V140.8z" class="st1"/><linearGradient id="SVGID_3_" x1="47.463" x2="47.463" y1="122.694" y2="80.805" gradientTransform="matrix(1 0 0 -1 0 151.4252)" gradientUnits="userSpaceOnUse"><stop offset="0" style="stop-color:#f0f0f0"/><stop offset=".533" style="stop-color:#eee"/><stop offset=".823" style="stop-color:#e6e6e6"/><stop offset="1" style="stop-color:#dcdcdc"/></linearGradient><path d="M54.7,65.6c3.3-6.2,7.2-12.1,11.5-17.6c3.9-4.9,7.3-8.9,10.2-11.8v-7.5H18.5v7.5h49.8 c-5.8,6.5-11.1,13.3-16,20.5c-3.1,4.5-5.8,9.2-8.4,14h8.2C53,68.9,53.8,67.2,54.7,65.6z" class="st2"/><linearGradient id="SVGID_4_" x1="40.451" x2="40.451" y1="33.816" y2="75.239" gradientTransform="matrix(1 0 0 -1 0 151.4252)" gradientUnits="userSpaceOnUse"><stop offset="0" style="stop-color:#fff"/><stop offset=".57" style="stop-color:#fdfdfd"/><stop offset=".879" style="stop-color:#f5f5f5"/><stop offset="1" style="stop-color:#efefef"/></linearGradient><path d="M34.4,96c-1.6,7.1-2.7,14.3-3.1,21.6H40c0.4-9.8,2.1-19.4,5-28.7c1.4-4.5,3-8.7,4.7-12.7h-8.4 C38.3,82.5,36,89.2,34.4,96z" class="st3"/></g></g></svg>