<svg xmlns="http://www.w3.org/2000/svg" xmlns:xlink="http://www.w3.org/1999/xlink" id="Layer_1" x="0" y="0" version="1.1" viewBox="0 0 93 148.8" xml:space="preserve" style="enable-background:new 0 0 93 148.8"><style type="text/css">.st0{fill:url(#SVGID_1_)}.st1{fill:url(#SVGID_2_)}.st2{fill:url(#SVGID_3_)}.st3{fill:url(#SVGID_4_)}</style><title>oss-num</title><g id="oss-num-0"><g id="oss-0"><linearGradient id="SVGID_1_" x1="46.5" x2="46.5" y1="151.429" y2="80.808" gradientTransform="matrix(1 0 0 -1 0 151.4294)" gradientUnits="userSpaceOnUse"><stop offset="0" style="stop-color:#61bb78"/><stop offset=".541" style="stop-color:#5fba76"/><stop offset=".735" style="stop-color:#58b771"/><stop offset=".874" style="stop-color:#4db267"/><stop offset=".985" style="stop-color:#3cab58"/><stop offset="1" style="stop-color:#39aa56"/></linearGradient><path d="M93,8c0-4.4-3.6-8-8-8H8C3.6,0,0,3.6,0,8v62.6h93V8z" class="st0"/><linearGradient id="SVGID_2_" x1="46.5" x2="46.5" y1="2.627" y2="75.245" gradientTransform="matrix(1 0 0 -1 0 151.4294)" gradientUnits="userSpaceOnUse"><stop offset="0" style="stop-color:#88cc9a"/><stop offset=".465" style="stop-color:#86ca98"/><stop offset=".717" style="stop-color:#7ec490"/><stop offset=".918" style="stop-color:#70b982"/><stop offset="1" style="stop-color:#68b37a"/></linearGradient><path d="M0,140.8c0,4.4,3.6,8,8,8H85c4.4,0,8-3.6,8-8V76.2H0V140.8z" class="st1"/><linearGradient id="SVGID_3_" x1="44.908" x2="44.908" y1="123.982" y2="80.808" gradientTransform="matrix(1 0 0 -1 0 151.4294)" gradientUnits="userSpaceOnUse"><stop offset="0" style="stop-color:#f0f0f0"/><stop offset=".533" style="stop-color:#eee"/><stop offset=".823" style="stop-color:#e6e6e6"/><stop offset="1" style="stop-color:#dcdcdc"/></linearGradient><path d="M70.4,42.8c-2.2-4.4-5.5-8.2-9.5-11c-4.1-2.9-9.4-4.3-16-4.3c-6.5,0-11.8,1.4-15.9,4.3 c-4.1,2.8-7.4,6.6-9.6,11c-2.3,4.7-3.9,9.7-4.6,14.9c-0.6,4.3-1,8.6-1.2,12.9h8.1c0.1-3,0.3-6.2,0.7-9.6c0.5-4.4,1.5-8.7,3.2-12.9 c1.5-3.8,3.9-7.2,7-9.9c3.1-2.7,7.2-4,12.3-4c5.1,0,9.3,1.3,12.3,4c3.1,2.7,5.5,6.1,7,9.9c1.6,4.1,2.7,8.5,3.2,12.9 c0.4,3.4,0.6,6.6,0.7,9.6h8.1c-0.1-4.3-0.5-8.7-1.2-12.9C74.3,52.5,72.8,47.4,70.4,42.8z" class="st2"/><linearGradient id="SVGID_4_" x1="44.913" x2="44.913" y1="31.369" y2="75.25" gradientTransform="matrix(1 0 0 -1 0 151.4294)" gradientUnits="userSpaceOnUse"><stop offset="0" style="stop-color:#fff"/><stop offset=".57" style="stop-color:#fdfdfd"/><stop offset=".879" style="stop-color:#f5f5f5"/><stop offset="1" style="stop-color:#efefef"/></linearGradient><path d="M67.4,86.6c-0.5,4.4-1.5,8.7-3.2,12.9c-1.5,3.8-3.9,7.3-7,10c-3.1,2.7-7.2,4-12.3,4s-9.3-1.3-12.3-4 c-3.1-2.7-5.5-6.1-7-10c-1.6-4.1-2.7-8.5-3.2-12.9c-0.4-3.7-0.7-7.1-0.7-10.4h-8.1c0.1,4.6,0.5,9.2,1.2,13.8 c0.7,5.2,2.3,10.2,4.6,14.9c2.2,4.4,5.5,8.2,9.6,10.9c4.1,2.8,9.4,4.2,15.9,4.2c6.6,0,11.9-1.4,16-4.2c4-2.8,7.3-6.5,9.5-10.9 c2.3-4.7,3.9-9.7,4.6-14.9c0.7-4.6,1.1-9.2,1.2-13.8h-8.1C68.1,79.4,67.8,82.9,67.4,86.6z" class="st3"/></g></g></svg>