<svg xmlns="http://www.w3.org/2000/svg" xmlns:xlink="http://www.w3.org/1999/xlink" id="Layer_1" x="0" y="0" version="1.1" viewBox="0 0 93 148.8" xml:space="preserve" style="enable-background:new 0 0 93 148.8"><style type="text/css">.st0{fill:url(#SVGID_1_)}.st1{fill:url(#SVGID_2_)}.st2{fill:url(#SVGID_3_)}.st3{fill:url(#SVGID_4_)}.st4{fill:url(#SVGID_5_)}</style><title>oss-num</title><g id="oss-num-9"><g id="oss-9"><linearGradient id="SVGID_1_" x1="46.5" x2="46.5" y1="2.627" y2="75.245" gradientTransform="matrix(1 0 0 -1 0 151.4294)" gradientUnits="userSpaceOnUse"><stop offset="0" style="stop-color:#88cc9a"/><stop offset=".465" style="stop-color:#86ca98"/><stop offset=".717" style="stop-color:#7ec490"/><stop offset=".918" style="stop-color:#70b982"/><stop offset="1" style="stop-color:#68b37a"/></linearGradient><path d="M0,140.8c0,4.4,3.6,8,8,8H85c4.4,0,8-3.6,8-8V76.2H0V140.8z" class="st0"/><linearGradient id="SVGID_2_" x1="46.5" x2="46.5" y1="151.429" y2="80.808" gradientTransform="matrix(1 0 0 -1 0 151.4294)" gradientUnits="userSpaceOnUse"><stop offset="0" style="stop-color:#61bb78"/><stop offset=".541" style="stop-color:#5fba76"/><stop offset=".735" style="stop-color:#58b771"/><stop offset=".874" style="stop-color:#4db267"/><stop offset=".985" style="stop-color:#3cab58"/><stop offset="1" style="stop-color:#39aa56"/></linearGradient><path d="M93,8c0-4.4-3.6-8-8-8H8C3.6,0,0,3.6,0,8v62.6h93V8z" class="st1"/><linearGradient id="SVGID_3_" x1="45.727" x2="45.727" y1="123.987" y2="80.798" gradientTransform="matrix(1 0 0 -1 0 151.4294)" gradientUnits="userSpaceOnUse"><stop offset="0" style="stop-color:#f0f0f0"/><stop offset=".533" style="stop-color:#eee"/><stop offset=".823" style="stop-color:#e6e6e6"/><stop offset="1" style="stop-color:#dcdcdc"/></linearGradient><path d="M24.3,66.7c-1-3-1.5-6.1-1.5-9.3c0-3,0.5-6,1.5-8.9c1.9-5.5,6-10,11.3-12.4c2.7-1.3,5.7-1.9,8.7-1.9 c3.5-0.1,6.9,0.5,10.2,1.8c2.7,1.1,5.1,2.8,7,5c1.9,2.1,3.2,4.6,4.1,7.3c0.9,2.9,1.3,6,1.3,9.1c0,3.2-0.5,6.3-1.5,9.3 c-0.5,1.3-1,2.6-1.8,3.9h12.9C76.6,64.7,76,58.8,74.9,53C74,47.8,72,42.7,69.2,38.2c-2.4-3.6-5.8-6.5-9.8-8.2 c-4.5-1.8-9.3-2.6-14.1-2.5c-4.2,0-8.4,0.7-12.3,2.3c-3.6,1.5-6.9,3.6-9.6,6.4c-2.7,2.8-4.9,6-6.3,9.6c-1.5,3.9-2.3,8-2.3,12.2 c0,4.1,0.7,8.2,2.1,12.1c0.1,0.2,0.2,0.4,0.3,0.6h8.9C25.4,69.4,24.8,68,24.3,66.7z" class="st2"/><linearGradient id="SVGID_4_" x1="46.851" x2="46.851" y1="31.364" y2="75.244" gradientTransform="matrix(1 0 0 -1 0 151.4294)" gradientUnits="userSpaceOnUse"><stop offset="0" style="stop-color:#fff"/><stop offset=".57" style="stop-color:#fdfdfd"/><stop offset=".879" style="stop-color:#f5f5f5"/><stop offset="1" style="stop-color:#efefef"/></linearGradient><path d="M68.6,76.2c-0.1,3.2-0.4,6.6-0.8,10.1c-0.6,4.5-1.8,8.9-3.6,13.1c-1.7,3.9-4.3,7.3-7.5,10 c-3.2,2.7-7.5,4-12.8,4c-4.7,0.2-9.3-1.5-12.8-4.6c-3.4-3.2-5.5-7.5-6-12.1H17c0.9,8,3.8,13.9,8.5,17.7c4.7,3.8,11.1,5.7,19.2,5.7 c4.3,0.1,8.7-0.8,12.6-2.6c3.4-1.6,6.4-3.8,8.8-6.6c2.4-2.7,4.3-5.8,5.7-9.1c1.4-3.2,2.5-6.6,3.3-10c0.7-3.1,1.2-6.2,1.5-9.3 c0.2-2.5,0.3-4.5,0.3-6.2L68.6,76.2z" class="st3"/><linearGradient id="SVGID_5_" x1="43.412" x2="43.412" y1="63.397" y2="75.244" gradientTransform="matrix(1 0 0 -1 0 151.4294)" gradientUnits="userSpaceOnUse"><stop offset="0" style="stop-color:#fff"/><stop offset=".57" style="stop-color:#fdfdfd"/><stop offset=".879" style="stop-color:#f5f5f5"/><stop offset="1" style="stop-color:#efefef"/></linearGradient><path d="M32.3,85.8c3.9,1.5,8,2.3,12.2,2.3c8.9,0,17.2-4.5,22.2-11.8h-7.5c-1.5,1.3-3.2,2.4-5.1,3.2 c-3,1.3-6.2,1.9-9.5,1.9c-3.2,0.1-6.3-0.6-9.2-1.9c-1.8-0.8-3.4-1.9-4.9-3.2H20.2c0.8,1.2,1.7,2.3,2.7,3.4 C25.5,82.3,28.7,84.4,32.3,85.8z" class="st4"/></g></g></svg>