<svg xmlns="http://www.w3.org/2000/svg" xmlns:xlink="http://www.w3.org/1999/xlink" id="Layer_1" x="0" y="0" version="1.1" viewBox="0 0 147.3 56.2" xml:space="preserve" style="enable-background:new 0 0 147.3 56.2"><style type="text/css">.st0{opacity:.4}.st1{fill:#010101}</style><g class="st0"><path d="M90.9,22c0.8-0.4,2.2-0.4,3,0l11.4,4.5c0.8,0.3,0.8,0.9,0,1.3l-11.9,5.4c-0.8,0.4-2.2,0.4-3,0.1l-11.8-4.7 c-0.8-0.3-0.8-0.9,0-1.2L90.9,22z" class="st1"/><g><path d="M105.3,36.2l-2.2-0.9l-9.3,4.2c-0.5,0.2-1.2,0.4-2,0.4c-0.4,0-1.1,0-1.7-0.3L81,36l-2.4,1 c-0.8,0.4-0.8,0.9,0,1.2l11.8,4.7c0.8,0.3,2.2,0.3,3-0.1l11.9-5.4C106.2,37.1,106.2,36.5,105.3,36.2z" class="st1"/></g><g><path d="M105.3,41.1l-2.2-0.9l-9.3,4.2c-0.5,0.2-1.2,0.4-2,0.4c-0.4,0-1.1,0-1.7-0.3L81,40.9l-2.4,1 c-0.8,0.4-0.8,0.9,0,1.2l11.8,4.7c0.8,0.3,2.2,0.3,3-0.1l11.9-5.4C106.2,42,106.2,41.4,105.3,41.1z" class="st1"/></g><g><path d="M105.3,31.3l-2.2-0.9l-9.3,4.2c-0.5,0.2-1.2,0.4-2,0.4c-0.4,0-1.1,0-1.7-0.3L81,31.1l-2.4,1 c-0.8,0.4-0.8,0.9,0,1.2l11.8,4.7c0.8,0.3,2.2,0.3,3-0.1l11.9-5.4C106.2,32.2,106.2,31.6,105.3,31.3z" class="st1"/></g></g></svg>