<svg xmlns="http://www.w3.org/2000/svg" id="Layer_1" x="0" y="0" version="1.1" viewBox="0 0 88.5 88.5" style="enable-background:new 0 0 98.826 110.606"><style type="text/css">.st0{stroke:#edeeef;stroke-width:3;stroke-linecap:round;stroke-linejoin:round;stroke-miterlimit:10}.st0,.st1{fill:#fff}.st2{stroke-linecap:round;stroke-linejoin:round}.st2,.st3{fill:none;stroke:#65babe;stroke-width:2.2222;stroke-miterlimit:10}</style><circle cx="44.25" cy="44.25" r="42.705" class="st0"/><circle cx="25.734" cy="30.739" r="1.155" class="st1"/><circle cx="29.147" cy="30.739" r="1.155" class="st1"/><circle cx="32.559" cy="30.739" r="1.155" class="st1"/><g transform="matrix(1, 0, 0, 1, -6.050999, -11.143002)"><polygon points="26.901 37.493 26.901 48.355 19.585 54.706 26.901 61.057 26.901 71.919 76.18 71.919 76.18 37.493" class="st2"/><line x1="35.85" x2="65.082" y1="57.805" y2="57.805" class="st2"/><line x1="35.85" x2="52.811" y1="63.336" y2="63.336" class="st2"/><g><polyline points="35.85 47.355 38.121 49.71 41.747 44.66" class="st2"/><ellipse cx="48.74" cy="47.355" class="st3" rx="2.64" ry="2.695"/><g><line x1="55.275" x2="55.275" y1="44.66" y2="50.05" class="st2"/><line x1="58.292" x2="55.275" y1="44.66" y2="48.149" class="st2"/><line x1="58.732" x2="56.381" y1="50.05" y2="46.869" class="st2"/></g></g></g></svg>